<svg width="228" height="59" viewBox="0 0 228 59" fill="none" xmlns="http://www.w3.org/2000/svg">
<path d="M29.8349 57.7225C29.3985 57.7765 28.9644 57.8305 28.5371 57.88C28.0456 57.9385 27.6 57.5965 27.5403 57.115C27.4806 56.6358 27.8274 56.2016 28.3143 56.1409C28.3166 56.1409 28.3189 56.1409 28.3212 56.1409C29.093 56.0486 29.8785 55.9519 30.6779 55.8461C30.6802 55.8461 30.6802 55.8461 30.6825 55.8461C31.1694 55.7854 31.6173 56.1206 31.6839 56.5998C31.7482 57.079 31.406 57.52 30.9144 57.5852C30.5515 57.6325 30.1909 57.6775 29.8349 57.7225ZM33.2757 57.2635C32.7933 57.3243 32.3477 56.9935 32.2765 56.5188C32.2053 56.0396 32.5452 55.5964 33.0345 55.5267C33.8085 55.4164 34.5941 55.3017 35.3888 55.1824C35.8849 55.1059 36.3351 55.4367 36.4109 55.9159C36.4867 56.3951 36.1514 56.8428 35.6644 56.9148C34.8628 57.0363 34.0727 57.1533 33.294 57.2635C33.2849 57.2613 33.2803 57.2613 33.2757 57.2635ZM26.1713 58.1455C26.1644 58.1455 26.1575 58.1477 26.153 58.1477C25.3421 58.2332 24.5382 58.3097 23.7642 58.3772C23.2726 58.4199 22.8362 58.0645 22.7926 57.583C22.749 57.1015 23.1142 56.6808 23.6034 56.6313C24.3683 56.5638 25.163 56.4873 25.9646 56.4041C26.4562 56.3523 26.8972 56.7011 26.95 57.1825C26.9982 57.6572 26.6514 58.0847 26.1713 58.1455ZM37.9958 56.5481C37.5203 56.6088 37.077 56.2871 36.999 55.8191C36.9186 55.3422 37.2493 54.89 37.7385 54.8135C38.5126 54.6897 39.2959 54.5615 40.0883 54.4287C40.5683 54.3455 41.0392 54.6672 41.1219 55.1442C41.2046 55.6212 40.8784 56.0756 40.3915 56.1566C39.5945 56.2893 38.8066 56.4198 38.028 56.5436C38.0165 56.5458 38.0073 56.5481 37.9958 56.5481ZM21.4167 58.5617C21.4007 58.5639 21.3823 58.5662 21.3639 58.5662C20.5393 58.6224 19.7308 58.6697 18.9613 58.7034C18.4675 58.7259 18.0495 58.3524 18.0265 57.8687C18.0035 57.385 18.3848 56.9755 18.8787 56.953C19.6343 56.9193 20.4291 56.8743 21.2399 56.8181C21.7337 56.7843 22.1609 57.1488 22.1954 57.6302C22.2275 58.0959 21.883 58.5032 21.4167 58.5617ZM42.7045 55.7584C42.2336 55.8169 41.7949 55.5042 41.7099 55.0429C41.6226 54.566 41.9465 54.1115 42.4334 54.026C43.2075 53.891 43.9884 53.7515 44.7786 53.6076C45.2655 53.5176 45.7318 53.8325 45.8214 54.3095C45.9109 54.7865 45.5917 55.2432 45.1047 55.3309C44.3123 55.4749 43.5267 55.6144 42.7481 55.7516C42.7343 55.7539 42.7205 55.7561 42.7045 55.7584ZM16.6484 58.7709C16.6162 58.7754 16.5818 58.7776 16.5473 58.7776C15.7089 58.7911 14.8935 58.7889 14.1264 58.7731C13.6325 58.7619 13.2397 58.3614 13.2512 57.8777C13.2627 57.394 13.6716 57.0093 14.1654 57.0205C14.9096 57.0363 15.702 57.0385 16.5174 57.025C17.0113 57.016 17.4178 57.403 17.427 57.8867C17.4362 58.3389 17.0963 58.7169 16.6484 58.7709ZM47.4016 54.9057C46.9377 54.9642 46.4989 54.6582 46.4094 54.2015C46.3152 53.7268 46.6345 53.2678 47.1191 53.1756C47.8932 53.0294 48.6718 52.8809 49.4597 52.7301C49.9489 52.6356 50.4152 52.9461 50.5117 53.4208C50.6081 53.8955 50.2911 54.3568 49.8065 54.4512C49.0164 54.6042 48.2331 54.7527 47.4568 54.899C47.4407 54.9012 47.42 54.9035 47.4016 54.9057ZM52.0896 53.999C51.6279 54.0575 51.1938 53.7561 51.0997 53.3038C51.0009 52.8291 51.3156 52.3679 51.7979 52.2712C52.572 52.1182 53.3506 51.9607 54.1339 51.801C54.6208 51.702 55.0917 52.0079 55.1927 52.4804C55.2938 52.9551 54.9814 53.4186 54.4991 53.5176C53.7135 53.6773 52.9303 53.8348 52.1562 53.99C52.1333 53.9923 52.1103 53.9968 52.0896 53.999ZM56.7661 53.0474C56.309 53.1036 55.8749 52.8089 55.7785 52.3589C55.6751 51.8865 55.9852 51.4207 56.4675 51.3195C57.2416 51.1598 58.0179 50.9955 58.7989 50.829C59.2789 50.7255 59.759 51.027 59.8624 51.4995C59.968 51.9719 59.6602 52.4399 59.1779 52.5411C58.3946 52.7076 57.6137 52.8719 56.8396 53.0316C56.8144 53.0406 56.7891 53.0451 56.7661 53.0474ZM11.88 58.6584C11.8203 58.6651 11.7605 58.6674 11.6985 58.6629C10.8326 58.5999 10.0126 58.5122 9.25921 58.4019C8.76997 58.3299 8.43463 57.8845 8.50813 57.4053C8.58163 56.926 9.03642 56.5953 9.52566 56.6673C10.2331 56.7708 11.0095 56.854 11.8317 56.9125C12.3256 56.9485 12.6954 57.3693 12.6586 57.8507C12.6242 58.2759 12.2911 58.6067 11.88 58.6584ZM61.4334 52.0574C60.9787 52.1137 60.5468 51.8235 60.4481 51.378C60.3424 50.9055 60.6456 50.4376 61.1279 50.3341C61.8997 50.1676 62.6761 49.9966 63.4547 49.8256C63.9394 49.7199 64.4148 50.0169 64.5251 50.4893C64.633 50.9618 64.3298 51.4297 63.8475 51.5355C63.0665 51.7087 62.2879 51.8774 61.5138 52.0439C61.4886 52.0507 61.461 52.0529 61.4334 52.0574ZM66.0939 51.0315C65.6414 51.0878 65.2119 50.7998 65.1085 50.3566C64.9982 49.8841 65.2991 49.4139 65.7815 49.3059C66.5532 49.1327 67.3273 48.9594 68.1059 48.7817C68.5883 48.6715 69.0684 48.9662 69.1786 49.4387C69.2911 49.9111 68.9903 50.3813 68.5079 50.4916C67.727 50.6693 66.9506 50.8425 66.1765 51.0158C66.1513 51.0248 66.1237 51.0293 66.0939 51.0315ZM70.7474 49.9764C70.2995 50.0326 69.87 49.7491 69.7643 49.3082C69.6518 48.838 69.9504 48.3655 70.4304 48.2552C71.2022 48.0775 71.9762 47.8975 72.7526 47.7175C73.2349 47.605 73.715 47.8975 73.8298 48.3677C73.9447 48.838 73.6484 49.3104 73.166 49.4229C72.3874 49.6051 71.611 49.7851 70.8393 49.9629C70.8094 49.9674 70.7773 49.9719 70.7474 49.9764ZM7.17133 57.934C7.05648 57.9475 6.93934 57.9407 6.82219 57.9092C5.90573 57.6617 5.09722 57.358 4.41734 57.0048C3.98093 56.7776 3.81554 56.2466 4.04523 55.8191C4.27722 55.3917 4.81929 55.2297 5.2557 55.4547C5.82074 55.7471 6.50522 56.0036 7.29536 56.2174C7.77311 56.3456 8.05333 56.8271 7.92241 57.295C7.82134 57.6482 7.51816 57.8912 7.17133 57.934ZM75.394 48.892C74.9461 48.9482 74.5189 48.667 74.411 48.2283C74.2938 47.758 74.5901 47.2833 75.0702 47.1708C75.8396 46.9886 76.6137 46.8041 77.39 46.6196C77.8701 46.5049 78.3547 46.7929 78.4719 47.2631C78.589 47.7333 78.295 48.208 77.815 48.3227C77.0386 48.5072 76.2646 48.6917 75.4928 48.874C75.4583 48.8829 75.4262 48.8875 75.394 48.892ZM80.0338 47.7828C79.5882 47.839 79.1632 47.5601 79.053 47.1236C78.9336 46.6534 79.2276 46.1787 79.7076 46.0617C80.4771 45.8749 81.2489 45.6882 82.0229 45.4992C82.5007 45.3822 82.9876 45.668 83.107 46.1382C83.2265 46.6084 82.9348 47.0831 82.4547 47.2001C81.6807 47.3891 80.9066 47.5781 80.1348 47.7648C80.1004 47.7715 80.0682 47.7783 80.0338 47.7828ZM84.6666 46.6511C84.2233 46.7074 83.7984 46.4307 83.6859 45.9964C83.5641 45.5262 83.8558 45.0515 84.3359 44.9323C85.1053 44.7433 85.8771 44.552 86.6489 44.3586C87.1289 44.2393 87.6159 44.5228 87.7376 44.9908C87.8594 45.461 87.5699 45.9379 87.0899 46.0572C86.3158 46.2507 85.5441 46.4419 84.7723 46.6309C84.7378 46.6399 84.7034 46.6466 84.6666 46.6511ZM89.2972 45.497C88.8562 45.5532 88.4313 45.2787 88.3187 44.8445C88.197 44.3766 88.4841 43.8974 88.9642 43.7781C89.7336 43.5846 90.5031 43.3889 91.2748 43.1954C91.7526 43.0739 92.2418 43.3551 92.3659 43.8254C92.4899 44.2933 92.2028 44.7725 91.7227 44.894C90.951 45.0898 90.1792 45.2855 89.4075 45.479C89.3684 45.4857 89.3317 45.4925 89.2972 45.497ZM93.9117 44.3271C93.473 44.3833 93.0481 44.1111 92.9332 43.6791C92.8092 43.2112 93.094 42.7319 93.574 42.6105C94.3412 42.4147 95.1107 42.2167 95.8778 42.0187C96.3556 41.8973 96.8448 42.1762 96.9712 42.6442C97.0975 43.1122 96.8104 43.5914 96.3326 43.7151C95.5632 43.9131 94.7937 44.1111 94.0242 44.3068C93.9875 44.3158 93.9507 44.3226 93.9117 44.3271ZM3.12647 55.6324C2.81179 55.6706 2.48793 55.5469 2.2881 55.2769C2.23528 55.2049 2.18474 55.1329 2.1365 55.0587C1.69549 54.3815 1.33488 53.6976 1.06155 53.0226C0.880094 52.5727 1.10519 52.0642 1.56457 51.8865C2.02395 51.7087 2.54305 51.9292 2.72451 52.3792C2.9542 52.9484 3.26428 53.5333 3.64327 54.1138C3.67313 54.1588 3.703 54.2015 3.73515 54.2443C4.02456 54.6357 3.93728 55.1847 3.53532 55.4682C3.41359 55.5604 3.27117 55.6144 3.12647 55.6324ZM98.5262 43.1392C98.0875 43.1932 97.6648 42.9232 97.5477 42.4935C97.4214 42.0255 97.7062 41.5463 98.1839 41.4226C98.9534 41.2223 99.7229 41.0221 100.492 40.8219C100.972 40.6959 101.459 40.9748 101.588 41.4428C101.717 41.9108 101.432 42.39 100.954 42.516C100.185 42.7184 99.4128 42.9187 98.6433 43.1189C98.6043 43.1257 98.5652 43.1324 98.5262 43.1392ZM103.148 41.9288C102.711 41.9828 102.289 41.715 102.171 41.2876C102.043 40.8196 102.325 40.3381 102.803 40.2122C103.575 40.0097 104.344 39.8049 105.116 39.6002C105.596 39.4742 106.085 39.7509 106.214 40.2167C106.343 40.6846 106.06 41.1661 105.585 41.2921C104.813 41.4968 104.041 41.7015 103.269 41.904C103.228 41.9175 103.187 41.9243 103.148 41.9288ZM107.764 40.7049C107.328 40.7589 106.908 40.4934 106.788 40.0659C106.657 39.5979 106.94 39.1165 107.415 38.9905C108.182 38.7858 108.95 38.581 109.717 38.3741C110.192 38.2458 110.686 38.5203 110.817 38.9883C110.948 39.4562 110.668 39.9377 110.19 40.0659C109.423 40.2729 108.653 40.4776 107.886 40.6824C107.847 40.6914 107.806 40.7004 107.764 40.7049ZM112.372 39.4675C111.938 39.5215 111.517 39.256 111.396 38.8308C111.265 38.3651 111.543 37.8813 112.021 37.7531C112.788 37.5461 113.555 37.3369 114.32 37.1299C114.795 37.0017 115.289 37.2739 115.422 37.7396C115.553 38.2053 115.275 38.689 114.8 38.8195C114.033 39.0288 113.265 39.2357 112.498 39.445C112.455 39.454 112.413 39.4607 112.372 39.4675ZM116.973 38.2166C116.539 38.2706 116.118 38.0073 115.999 37.5821C115.866 37.1164 116.143 36.6327 116.621 36.5022C117.388 36.293 118.156 36.0815 118.92 35.8723C119.396 35.7418 119.89 36.014 120.023 36.4797C120.156 36.9454 119.878 37.4291 119.403 37.5596C118.638 37.7711 117.871 37.9803 117.101 38.1896C117.058 38.2008 117.016 38.2098 116.973 38.2166ZM121.571 36.9522C121.139 37.0062 120.719 36.7429 120.597 36.32C120.464 35.8543 120.74 35.3706 121.215 35.2378C121.982 35.0263 122.747 34.8126 123.512 34.6011C123.987 34.4684 124.481 34.7406 124.617 35.2041C124.752 35.6698 124.477 36.1535 124.001 36.2862C123.236 36.4977 122.469 36.7114 121.702 36.9229C121.658 36.9364 121.615 36.9454 121.571 36.9522ZM126.165 35.6743C125.733 35.7283 125.315 35.4673 125.191 35.0443C125.055 34.5786 125.331 34.0949 125.807 33.9599C126.574 33.7462 127.339 33.5324 128.101 33.3165C128.574 33.1837 129.073 33.4515 129.208 33.9172C129.344 34.3829 129.07 34.8688 128.595 35.0016C127.83 35.2153 127.065 35.4313 126.298 35.645C126.254 35.6608 126.211 35.6698 126.165 35.6743ZM1.44743 51.3083C1.43594 51.3105 1.42447 51.3105 1.41528 51.3127C0.923745 51.3555 0.487323 51.0023 0.443682 50.5186C0.36329 49.6569 0.423016 48.793 0.622847 47.9448C0.733099 47.4723 1.21315 47.1776 1.6955 47.2878C2.17785 47.3958 2.47874 47.866 2.36619 48.3385C2.21 49.0044 2.16177 49.6839 2.22378 50.3588C2.26743 50.8313 1.92059 51.2498 1.44743 51.3083ZM130.756 34.3851C130.327 34.4391 129.909 34.1804 129.785 33.7574C129.647 33.2917 129.923 32.8058 130.398 32.673C131.165 32.457 131.93 32.2411 132.69 32.0251C133.168 31.8901 133.662 32.1578 133.8 32.6235C133.938 33.0892 133.664 33.5752 133.189 33.7102C132.426 33.9262 131.661 34.1421 130.894 34.3581C130.846 34.3716 130.802 34.3784 130.756 34.3851ZM135.346 33.0847C134.916 33.1387 134.498 32.88 134.374 32.4593C134.236 31.9936 134.51 31.5076 134.983 31.3726C135.75 31.1544 136.515 30.9362 137.275 30.7179C137.75 30.5829 138.247 30.8484 138.384 31.3141C138.522 31.7798 138.251 32.2658 137.776 32.4008C137.013 32.619 136.248 32.8373 135.481 33.0555C135.437 33.069 135.392 33.0802 135.346 33.0847ZM139.93 31.7731C139.501 31.8271 139.085 31.5684 138.959 31.1499C138.821 30.6842 139.092 30.1982 139.565 30.0632C140.332 29.8428 141.095 29.6223 141.855 29.404C142.33 29.2668 142.827 29.5323 142.967 29.998C143.107 30.4637 142.836 30.9497 142.36 31.0869C141.6 31.3074 140.835 31.5256 140.068 31.7461C140.022 31.7596 139.976 31.7686 139.93 31.7731ZM144.513 30.4524C144.085 30.5064 143.667 30.25 143.541 29.8315C143.401 29.368 143.672 28.8798 144.145 28.7426C144.912 28.5199 145.675 28.2994 146.435 28.0789C146.908 27.9417 147.407 28.2049 147.547 28.6706C147.687 29.1341 147.418 29.6223 146.943 29.7595C146.182 29.98 145.42 30.2027 144.653 30.4255C144.607 30.4367 144.558 30.4457 144.513 30.4524ZM149.09 29.1206C148.663 29.1746 148.247 28.9181 148.121 28.5019C147.981 28.0384 148.25 27.5502 148.723 27.4107C149.49 27.1857 150.253 26.963 151.01 26.7402C151.484 26.6008 151.982 26.864 152.124 27.3297C152.267 27.7932 151.998 28.2814 151.523 28.4209C150.765 28.6436 150.002 28.8663 149.233 29.0913C149.187 29.1048 149.139 29.1138 149.09 29.1206ZM2.45577 46.8604C2.27432 46.8829 2.08598 46.8514 1.91371 46.7591C1.47959 46.5274 1.32111 45.9942 1.55769 45.569C1.94357 44.8783 2.43051 44.1876 3.00704 43.5149C3.32401 43.1437 3.88905 43.0964 4.26804 43.4069C4.64703 43.7174 4.69526 44.2708 4.37828 44.642C3.87756 45.227 3.45722 45.8209 3.12877 46.4081C2.98636 46.6669 2.7314 46.8266 2.45577 46.8604ZM153.668 27.7797C153.241 27.8337 152.825 27.5794 152.699 27.1632C152.556 26.6998 152.825 26.2115 153.298 26.072C154.065 25.8471 154.828 25.6221 155.584 25.3971C156.057 25.2576 156.555 25.5186 156.7 25.9821C156.842 26.4455 156.574 26.936 156.1 27.0755C155.342 27.2982 154.58 27.5232 153.813 27.7504C153.764 27.7617 153.716 27.7729 153.668 27.7797ZM158.241 26.4275C157.816 26.4815 157.4 26.2273 157.272 25.8111C157.129 25.3476 157.396 24.8594 157.869 24.7177C158.639 24.4904 159.399 24.2632 160.154 24.0382C160.628 23.8987 161.126 24.1597 161.271 24.6232C161.415 25.0866 161.147 25.5748 160.676 25.7166C159.92 25.9416 159.158 26.1688 158.388 26.396C158.338 26.4118 158.289 26.4208 158.241 26.4275ZM162.812 25.0664C162.387 25.1204 161.974 24.8662 161.843 24.4522C161.698 23.9887 161.964 23.5005 162.438 23.3588C163.207 23.1293 163.967 22.9021 164.721 22.6748C165.192 22.5331 165.695 22.7941 165.839 23.2553C165.984 23.7187 165.718 24.2092 165.247 24.3509C164.493 24.5782 163.731 24.8054 162.961 25.0349C162.911 25.0506 162.86 25.0596 162.812 25.0664ZM167.381 23.6962C166.956 23.7502 166.542 23.4983 166.414 23.0843C166.269 22.6208 166.533 22.1304 167.006 21.9886C167.776 21.7569 168.538 21.5274 169.289 21.3002C169.762 21.1585 170.263 21.4172 170.408 21.8784C170.553 22.3419 170.288 22.8323 169.815 22.9741C169.064 23.2013 168.302 23.4308 167.532 23.6625C167.479 23.6805 167.429 23.6895 167.381 23.6962ZM5.46931 43.2787C5.18909 43.3147 4.89508 43.2179 4.69066 42.9952C4.3599 42.6352 4.38977 42.0818 4.75728 41.7578C5.3361 41.2471 5.98382 40.7319 6.67979 40.2302C7.07715 39.9422 7.6376 40.0254 7.9316 40.4169C8.22561 40.8061 8.14062 41.3551 7.74096 41.643C7.09323 42.111 6.49144 42.588 5.95626 43.0604C5.81385 43.1842 5.64388 43.2562 5.46931 43.2787ZM171.945 22.3171C171.522 22.3711 171.108 22.1191 170.978 21.7074C170.831 21.2462 171.097 20.7535 171.568 20.6117C172.34 20.3778 173.1 20.146 173.849 19.9188C174.32 19.7771 174.823 20.0335 174.97 20.4948C175.117 20.9582 174.852 21.4487 174.379 21.5927C173.63 21.8199 172.868 22.0516 172.096 22.2856C172.048 22.2991 171.997 22.3104 171.945 22.3171ZM176.508 20.929C176.086 20.983 175.672 20.7332 175.541 20.3193C175.394 19.8581 175.659 19.3654 176.129 19.2214C176.904 18.9851 177.664 18.7534 178.41 18.5239C178.883 18.3799 179.384 18.6364 179.531 19.0976C179.678 19.5588 179.416 20.0515 178.943 20.1955C178.197 20.425 177.436 20.6567 176.662 20.893C176.612 20.911 176.561 20.9222 176.508 20.929ZM181.07 19.5318C180.647 19.5858 180.236 19.3361 180.103 18.9244C179.954 18.4632 180.218 17.9705 180.689 17.8265C181.467 17.588 182.228 17.354 182.967 17.1245C183.438 16.9783 183.941 17.2348 184.091 17.6982C184.24 18.1594 183.978 18.6522 183.505 18.7984C182.763 19.0279 182.003 19.2619 181.224 19.5003C181.173 19.5138 181.123 19.5251 181.07 19.5318ZM9.29827 40.4934C8.96292 40.5361 8.61837 40.3899 8.42773 40.0907C8.16359 39.6812 8.28992 39.139 8.70796 38.8825C9.36717 38.4775 10.0746 38.0681 10.8119 37.6699C11.2437 37.4359 11.7881 37.5889 12.0293 38.0141C12.2682 38.437 12.112 38.9703 11.6779 39.2042C10.9704 39.5867 10.2928 39.9782 9.66117 40.3651C9.54632 40.4349 9.4223 40.4776 9.29827 40.4934ZM185.629 18.1235C185.209 18.1752 184.796 17.9277 184.665 17.5183C184.515 17.057 184.777 16.5643 185.248 16.4181C186.034 16.1751 186.792 15.9389 187.527 15.7116C187.998 15.5654 188.501 15.8196 188.65 16.2809C188.799 16.7421 188.54 17.2348 188.069 17.381C187.334 17.6105 186.574 17.8467 185.788 18.0897C185.735 18.1054 185.682 18.1167 185.629 18.1235ZM190.189 16.7061C189.768 16.7578 189.357 16.5126 189.224 16.1031C189.075 15.6419 189.334 15.1492 189.805 15.0007C190.602 14.751 191.363 14.5147 192.084 14.2875C192.555 14.139 193.058 14.3932 193.209 14.8545C193.361 15.3157 193.101 15.8084 192.63 15.9569C191.909 16.1841 191.149 16.4203 190.35 16.6701C190.294 16.6881 190.242 16.6993 190.189 16.7061ZM13.4763 38.2211C13.1088 38.2683 12.7344 38.0838 12.5599 37.7396C12.3417 37.3054 12.5231 36.7789 12.9641 36.5652C13.6624 36.2255 14.3997 35.8858 15.1577 35.5528C15.6079 35.3548 16.1384 35.5505 16.3406 35.9915C16.5427 36.4325 16.3429 36.9522 15.8927 37.1502C15.1554 37.4741 14.4387 37.8071 13.7589 38.1356C13.6693 38.1806 13.5728 38.2098 13.4763 38.2211ZM194.748 15.2752C194.328 15.3269 193.917 15.0817 193.783 14.6745C193.632 14.2133 193.891 13.7206 194.362 13.5721C195.194 13.3111 195.954 13.0704 196.641 12.8521C197.112 12.7036 197.615 12.9556 197.769 13.4168C197.92 13.878 197.663 14.3708 197.192 14.5215C196.505 14.7397 195.743 14.9805 194.909 15.2414C194.856 15.2572 194.801 15.2684 194.748 15.2752ZM199.312 13.8308C198.894 13.8825 198.483 13.6396 198.347 13.2324C198.194 12.7711 198.451 12.2762 198.922 12.1277C200.33 11.68 201.081 11.437 201.081 11.437C201.549 11.2863 202.057 11.536 202.211 11.995C202.365 12.4539 202.11 12.9511 201.641 13.1019C201.641 13.1019 200.888 13.3448 199.475 13.7948C199.422 13.8128 199.367 13.824 199.312 13.8308ZM17.8359 36.2952C17.4454 36.3447 17.0526 36.1332 16.8964 35.7598C16.7081 35.3121 16.9263 34.7991 17.3811 34.6146C18.1023 34.3221 18.858 34.0297 19.6251 33.7417C20.0868 33.5684 20.6036 33.7957 20.7805 34.2479C20.9574 34.7001 20.7254 35.2063 20.2637 35.3796C19.5103 35.6608 18.7707 35.9488 18.0633 36.2367C17.9898 36.266 17.9117 36.2862 17.8359 36.2952ZM22.3011 34.6191C21.8922 34.6709 21.4902 34.4391 21.3455 34.0432C21.1802 33.5864 21.4213 33.087 21.8876 32.9227C22.6272 32.664 23.3921 32.4053 24.1661 32.1533C24.637 31.9981 25.1423 32.2478 25.2985 32.7068C25.4547 33.1657 25.202 33.6629 24.7335 33.8159C23.9709 34.0657 23.2152 34.3199 22.4894 34.5741C22.4274 34.5966 22.3631 34.6101 22.3011 34.6191ZM26.8397 33.1342C26.4171 33.186 26.006 32.9385 25.8727 32.5268C25.7257 32.0656 25.9876 31.5729 26.4584 31.4289C27.2072 31.1994 27.9813 30.9677 28.7622 30.7427C29.2354 30.6054 29.7338 30.8709 29.8739 31.3344C30.0141 31.7978 29.743 32.2861 29.2699 32.4233C28.5004 32.646 27.7355 32.8755 26.9959 33.1027C26.9431 33.1162 26.8903 33.1275 26.8397 33.1342ZM31.4267 31.8046C30.9925 31.8586 30.5722 31.5954 30.4528 31.1701C30.3195 30.7044 30.5975 30.2207 31.0729 30.0902C31.8355 29.881 32.6165 29.674 33.3951 29.4715C33.8729 29.3478 34.3621 29.6268 34.4884 30.0947C34.6148 30.5627 34.3299 31.0419 33.8522 31.1656C33.0827 31.3659 32.311 31.5706 31.5553 31.7776C31.5116 31.7911 31.468 31.8001 31.4267 31.8046ZM36.0549 30.6054C35.6116 30.6617 35.1844 30.385 35.0741 29.9485C34.9547 29.4783 35.2464 29.0036 35.7242 28.8843C36.4913 28.6953 37.2792 28.5086 38.0601 28.3264C38.5425 28.2161 39.0225 28.5064 39.1374 28.9766C39.2522 29.4468 38.9536 29.9192 38.4736 30.0317C37.6995 30.2117 36.9185 30.3985 36.1583 30.5829C36.1238 30.5942 36.0894 30.6009 36.0549 30.6054ZM40.713 29.5233C40.2606 29.5795 39.8287 29.2915 39.7277 28.8461C39.6197 28.3736 39.9229 27.9057 40.4053 27.7999C41.1885 27.6267 41.9809 27.4602 42.7573 27.2982C43.2419 27.197 43.7151 27.5007 43.8185 27.9754C43.9195 28.4501 43.6117 28.9136 43.1271 29.0148C42.3576 29.1745 41.5744 29.341 40.7957 29.512C40.7705 29.5165 40.7406 29.521 40.713 29.5233ZM45.4056 28.5559C44.9416 28.6143 44.5052 28.3106 44.4157 27.8562C44.3215 27.3815 44.6362 26.9202 45.1208 26.828C46.6161 26.54 47.4774 26.396 47.5119 26.3893C47.9919 26.306 48.4605 26.6278 48.5455 27.107C48.6282 27.5839 48.302 28.0361 47.8151 28.1194C47.8059 28.1216 46.9377 28.2656 45.4676 28.5491C45.4447 28.5513 45.4263 28.5536 45.4056 28.5559Z" fill="#B7EE81"/>
<path d="M29.8349 57.7225C29.3985 57.7765 28.9644 57.8305 28.5371 57.88C28.0456 57.9385 27.6 57.5965 27.5403 57.115C27.4806 56.6358 27.8274 56.2016 28.3143 56.1409C28.3166 56.1409 28.3189 56.1409 28.3212 56.1409C29.093 56.0486 29.8785 55.9519 30.6779 55.8461C30.6802 55.8461 30.6802 55.8461 30.6825 55.8461C31.1694 55.7854 31.6173 56.1206 31.6839 56.5998C31.7482 57.079 31.406 57.52 30.9144 57.5852C30.5515 57.6325 30.1909 57.6775 29.8349 57.7225ZM33.2757 57.2635C32.7933 57.3243 32.3477 56.9935 32.2765 56.5188C32.2053 56.0396 32.5452 55.5964 33.0345 55.5267C33.8085 55.4164 34.5941 55.3017 35.3888 55.1824C35.8849 55.1059 36.3351 55.4367 36.4109 55.9159C36.4867 56.3951 36.1514 56.8428 35.6644 56.9148C34.8628 57.0363 34.0727 57.1533 33.294 57.2635C33.2849 57.2613 33.2803 57.2613 33.2757 57.2635ZM26.1713 58.1455C26.1644 58.1455 26.1575 58.1477 26.153 58.1477C25.3421 58.2332 24.5382 58.3097 23.7642 58.3772C23.2726 58.4199 22.8362 58.0645 22.7926 57.583C22.749 57.1015 23.1142 56.6808 23.6034 56.6313C24.3683 56.5638 25.163 56.4873 25.9646 56.4041C26.4562 56.3523 26.8972 56.7011 26.95 57.1825C26.9982 57.6572 26.6514 58.0847 26.1713 58.1455ZM37.9958 56.5481C37.5203 56.6088 37.077 56.2871 36.999 55.8191C36.9186 55.3422 37.2493 54.89 37.7385 54.8135C38.5126 54.6897 39.2959 54.5615 40.0883 54.4287C40.5683 54.3455 41.0392 54.6672 41.1219 55.1442C41.2046 55.6212 40.8784 56.0756 40.3915 56.1566C39.5945 56.2893 38.8066 56.4198 38.028 56.5436C38.0165 56.5458 38.0073 56.5481 37.9958 56.5481ZM21.4167 58.5617C21.4007 58.5639 21.3823 58.5662 21.3639 58.5662C20.5393 58.6224 19.7308 58.6697 18.9613 58.7034C18.4675 58.7259 18.0495 58.3524 18.0265 57.8687C18.0035 57.385 18.3848 56.9755 18.8787 56.953C19.6343 56.9193 20.4291 56.8743 21.2399 56.8181C21.7337 56.7843 22.1609 57.1488 22.1954 57.6302C22.2275 58.0959 21.883 58.5032 21.4167 58.5617ZM42.7045 55.7584C42.2336 55.8169 41.7949 55.5042 41.7099 55.0429C41.6226 54.566 41.9465 54.1115 42.4334 54.026C43.2075 53.891 43.9884 53.7515 44.7786 53.6076C45.2655 53.5176 45.7318 53.8325 45.8214 54.3095C45.9109 54.7865 45.5917 55.2432 45.1047 55.3309C44.3123 55.4749 43.5267 55.6144 42.7481 55.7516C42.7343 55.7539 42.7205 55.7561 42.7045 55.7584ZM16.6484 58.7709C16.6162 58.7754 16.5818 58.7776 16.5473 58.7776C15.7089 58.7911 14.8935 58.7889 14.1264 58.7731C13.6325 58.7619 13.2397 58.3614 13.2512 57.8777C13.2627 57.394 13.6716 57.0093 14.1654 57.0205C14.9096 57.0363 15.702 57.0385 16.5174 57.025C17.0113 57.016 17.4178 57.403 17.427 57.8867C17.4362 58.3389 17.0963 58.7169 16.6484 58.7709ZM47.4016 54.9057C46.9377 54.9642 46.4989 54.6582 46.4094 54.2015C46.3152 53.7268 46.6345 53.2678 47.1191 53.1756C47.8932 53.0294 48.6718 52.8809 49.4597 52.7301C49.9489 52.6356 50.4152 52.9461 50.5117 53.4208C50.6081 53.8955 50.2911 54.3568 49.8065 54.4512C49.0164 54.6042 48.2331 54.7527 47.4568 54.899C47.4407 54.9012 47.42 54.9035 47.4016 54.9057ZM52.0896 53.999C51.6279 54.0575 51.1938 53.7561 51.0997 53.3038C51.0009 52.8291 51.3156 52.3679 51.7979 52.2712C52.572 52.1182 53.3506 51.9607 54.1339 51.801C54.6208 51.702 55.0917 52.0079 55.1927 52.4804C55.2938 52.9551 54.9814 53.4186 54.4991 53.5176C53.7135 53.6773 52.9303 53.8348 52.1562 53.99C52.1333 53.9923 52.1103 53.9968 52.0896 53.999ZM56.7661 53.0474C56.309 53.1036 55.8749 52.8089 55.7785 52.3589C55.6751 51.8865 55.9852 51.4207 56.4675 51.3195C57.2416 51.1598 58.0179 50.9955 58.7989 50.829C59.2789 50.7255 59.759 51.027 59.8624 51.4995C59.968 51.9719 59.6602 52.4399 59.1779 52.5411C58.3946 52.7076 57.6137 52.8719 56.8396 53.0316C56.8144 53.0406 56.7891 53.0451 56.7661 53.0474ZM11.88 58.6584C11.8203 58.6651 11.7605 58.6674 11.6985 58.6629C10.8326 58.5999 10.0126 58.5122 9.25921 58.4019C8.76997 58.3299 8.43463 57.8845 8.50813 57.4053C8.58163 56.926 9.03642 56.5953 9.52566 56.6673C10.2331 56.7708 11.0095 56.854 11.8317 56.9125C12.3256 56.9485 12.6954 57.3693 12.6586 57.8507C12.6242 58.2759 12.2911 58.6067 11.88 58.6584ZM61.4334 52.0574C60.9787 52.1137 60.5468 51.8235 60.4481 51.378C60.3424 50.9055 60.6456 50.4376 61.1279 50.3341C61.8997 50.1676 62.6761 49.9966 63.4547 49.8256C63.9394 49.7199 64.4148 50.0169 64.5251 50.4893C64.633 50.9618 64.3298 51.4297 63.8475 51.5355C63.0665 51.7087 62.2879 51.8774 61.5138 52.0439C61.4886 52.0507 61.461 52.0529 61.4334 52.0574ZM66.0939 51.0315C65.6414 51.0878 65.2119 50.7998 65.1085 50.3566C64.9982 49.8841 65.2991 49.4139 65.7815 49.3059C66.5532 49.1327 67.3273 48.9594 68.1059 48.7817C68.5883 48.6715 69.0684 48.9662 69.1786 49.4387C69.2911 49.9111 68.9903 50.3813 68.5079 50.4916C67.727 50.6693 66.9506 50.8425 66.1765 51.0158C66.1513 51.0248 66.1237 51.0293 66.0939 51.0315ZM70.7474 49.9764C70.2995 50.0326 69.87 49.7491 69.7643 49.3082C69.6518 48.838 69.9504 48.3655 70.4304 48.2552C71.2022 48.0775 71.9762 47.8975 72.7526 47.7175C73.2349 47.605 73.715 47.8975 73.8298 48.3677C73.9447 48.838 73.6484 49.3104 73.166 49.4229C72.3874 49.6051 71.611 49.7851 70.8393 49.9629C70.8094 49.9674 70.7773 49.9719 70.7474 49.9764ZM7.17133 57.934C7.05648 57.9475 6.93934 57.9407 6.82219 57.9092C5.90573 57.6617 5.09722 57.358 4.41734 57.0048C3.98093 56.7776 3.81554 56.2466 4.04523 55.8191C4.27722 55.3917 4.81929 55.2297 5.2557 55.4547C5.82074 55.7471 6.50522 56.0036 7.29536 56.2174C7.77311 56.3456 8.05333 56.8271 7.92241 57.295C7.82134 57.6482 7.51816 57.8912 7.17133 57.934ZM75.394 48.892C74.9461 48.9482 74.5189 48.667 74.411 48.2283C74.2938 47.758 74.5901 47.2833 75.0702 47.1708C75.8396 46.9886 76.6137 46.8041 77.39 46.6196C77.8701 46.5049 78.3547 46.7929 78.4719 47.2631C78.589 47.7333 78.295 48.208 77.815 48.3227C77.0386 48.5072 76.2646 48.6917 75.4928 48.874C75.4583 48.8829 75.4262 48.8875 75.394 48.892ZM80.0338 47.7828C79.5882 47.839 79.1632 47.5601 79.053 47.1236C78.9336 46.6534 79.2276 46.1787 79.7076 46.0617C80.4771 45.8749 81.2489 45.6882 82.0229 45.4992C82.5007 45.3822 82.9876 45.668 83.107 46.1382C83.2265 46.6084 82.9348 47.0831 82.4547 47.2001C81.6807 47.3891 80.9066 47.5781 80.1348 47.7648C80.1004 47.7715 80.0682 47.7783 80.0338 47.7828ZM84.6666 46.6511C84.2233 46.7074 83.7984 46.4307 83.6859 45.9964C83.5641 45.5262 83.8558 45.0515 84.3359 44.9323C85.1053 44.7433 85.8771 44.552 86.6489 44.3586C87.1289 44.2393 87.6159 44.5228 87.7376 44.9908C87.8594 45.461 87.5699 45.9379 87.0899 46.0572C86.3158 46.2507 85.5441 46.4419 84.7723 46.6309C84.7378 46.6399 84.7034 46.6466 84.6666 46.6511ZM89.2972 45.497C88.8562 45.5532 88.4313 45.2787 88.3187 44.8445C88.197 44.3766 88.4841 43.8974 88.9642 43.7781C89.7336 43.5846 90.5031 43.3889 91.2748 43.1954C91.7526 43.0739 92.2418 43.3551 92.3659 43.8254C92.4899 44.2933 92.2028 44.7725 91.7227 44.894C90.951 45.0898 90.1792 45.2855 89.4075 45.479C89.3684 45.4857 89.3317 45.4925 89.2972 45.497ZM93.9117 44.3271C93.473 44.3833 93.0481 44.1111 92.9332 43.6791C92.8092 43.2112 93.094 42.7319 93.574 42.6105C94.3412 42.4147 95.1107 42.2167 95.8778 42.0187C96.3556 41.8973 96.8448 42.1762 96.9712 42.6442C97.0975 43.1122 96.8104 43.5914 96.3326 43.7151C95.5632 43.9131 94.7937 44.1111 94.0242 44.3068C93.9875 44.3158 93.9507 44.3226 93.9117 44.3271ZM3.12647 55.6324C2.81179 55.6706 2.48793 55.5469 2.2881 55.2769C2.23528 55.2049 2.18474 55.1329 2.1365 55.0587C1.69549 54.3815 1.33488 53.6976 1.06155 53.0226C0.880094 52.5727 1.10519 52.0642 1.56457 51.8865C2.02395 51.7087 2.54305 51.9292 2.72451 52.3792C2.9542 52.9484 3.26428 53.5333 3.64327 54.1138C3.67313 54.1588 3.703 54.2015 3.73515 54.2443C4.02456 54.6357 3.93728 55.1847 3.53532 55.4682C3.41359 55.5604 3.27117 55.6144 3.12647 55.6324ZM98.5262 43.1392C98.0875 43.1932 97.6648 42.9232 97.5477 42.4935C97.4214 42.0255 97.7062 41.5463 98.1839 41.4226C98.9534 41.2223 99.7229 41.0221 100.492 40.8219C100.972 40.6959 101.459 40.9748 101.588 41.4428C101.717 41.9108 101.432 42.39 100.954 42.516C100.185 42.7184 99.4128 42.9187 98.6433 43.1189C98.6043 43.1257 98.5652 43.1324 98.5262 43.1392ZM103.148 41.9288C102.711 41.9828 102.289 41.715 102.171 41.2876C102.043 40.8196 102.325 40.3381 102.803 40.2122C103.575 40.0097 104.344 39.8049 105.116 39.6002C105.596 39.4742 106.085 39.7509 106.214 40.2167C106.343 40.6846 106.06 41.1661 105.585 41.2921C104.813 41.4968 104.041 41.7015 103.269 41.904C103.228 41.9175 103.187 41.9243 103.148 41.9288ZM107.764 40.7049C107.328 40.7589 106.908 40.4934 106.788 40.0659C106.657 39.5979 106.94 39.1165 107.415 38.9905C108.182 38.7858 108.95 38.581 109.717 38.3741C110.192 38.2458 110.686 38.5203 110.817 38.9883C110.948 39.4562 110.668 39.9377 110.19 40.0659C109.423 40.2729 108.653 40.4776 107.886 40.6824C107.847 40.6914 107.806 40.7004 107.764 40.7049ZM112.372 39.4675C111.938 39.5215 111.517 39.256 111.396 38.8308C111.265 38.3651 111.543 37.8813 112.021 37.7531C112.788 37.5461 113.555 37.3369 114.32 37.1299C114.795 37.0017 115.289 37.2739 115.422 37.7396C115.553 38.2053 115.275 38.689 114.8 38.8195C114.033 39.0288 113.265 39.2357 112.498 39.445C112.455 39.454 112.413 39.4607 112.372 39.4675ZM116.973 38.2166C116.539 38.2706 116.118 38.0073 115.999 37.5821C115.866 37.1164 116.143 36.6327 116.621 36.5022C117.388 36.293 118.156 36.0815 118.92 35.8723C119.396 35.7418 119.89 36.014 120.023 36.4797C120.156 36.9454 119.878 37.4291 119.403 37.5596C118.638 37.7711 117.871 37.9803 117.101 38.1896C117.058 38.2008 117.016 38.2098 116.973 38.2166ZM121.571 36.9522C121.139 37.0062 120.719 36.7429 120.597 36.32C120.464 35.8543 120.74 35.3706 121.215 35.2378C121.982 35.0263 122.747 34.8126 123.512 34.6011C123.987 34.4684 124.481 34.7406 124.617 35.2041C124.752 35.6698 124.477 36.1535 124.001 36.2862C123.236 36.4977 122.469 36.7114 121.702 36.9229C121.658 36.9364 121.615 36.9454 121.571 36.9522ZM126.165 35.6743C125.733 35.7283 125.315 35.4673 125.191 35.0443C125.055 34.5786 125.331 34.0949 125.807 33.9599C126.574 33.7462 127.339 33.5324 128.101 33.3165C128.574 33.1837 129.073 33.4515 129.208 33.9172C129.344 34.3829 129.07 34.8688 128.595 35.0016C127.83 35.2153 127.065 35.4313 126.298 35.645C126.254 35.6608 126.211 35.6698 126.165 35.6743ZM1.44743 51.3083C1.43594 51.3105 1.42447 51.3105 1.41528 51.3127C0.923745 51.3555 0.487323 51.0023 0.443682 50.5186C0.36329 49.6569 0.423016 48.793 0.622847 47.9448C0.733099 47.4723 1.21315 47.1776 1.6955 47.2878C2.17785 47.3958 2.47874 47.866 2.36619 48.3385C2.21 49.0044 2.16177 49.6839 2.22378 50.3588C2.26743 50.8313 1.92059 51.2498 1.44743 51.3083ZM130.756 34.3851C130.327 34.4391 129.909 34.1804 129.785 33.7574C129.647 33.2917 129.923 32.8058 130.398 32.673C131.165 32.457 131.93 32.2411 132.69 32.0251C133.168 31.8901 133.662 32.1578 133.8 32.6235C133.938 33.0892 133.664 33.5752 133.189 33.7102C132.426 33.9262 131.661 34.1421 130.894 34.3581C130.846 34.3716 130.802 34.3784 130.756 34.3851ZM135.346 33.0847C134.916 33.1387 134.498 32.88 134.374 32.4593C134.236 31.9936 134.51 31.5076 134.983 31.3726C135.75 31.1544 136.515 30.9362 137.275 30.7179C137.75 30.5829 138.247 30.8484 138.384 31.3141C138.522 31.7798 138.251 32.2658 137.776 32.4008C137.013 32.619 136.248 32.8373 135.481 33.0555C135.437 33.069 135.392 33.0802 135.346 33.0847ZM139.93 31.7731C139.501 31.8271 139.085 31.5684 138.959 31.1499C138.821 30.6842 139.092 30.1982 139.565 30.0632C140.332 29.8428 141.095 29.6223 141.855 29.404C142.33 29.2668 142.827 29.5323 142.967 29.998C143.107 30.4637 142.836 30.9497 142.36 31.0869C141.6 31.3074 140.835 31.5256 140.068 31.7461C140.022 31.7596 139.976 31.7686 139.93 31.7731ZM144.513 30.4524C144.085 30.5064 143.667 30.25 143.541 29.8315C143.401 29.368 143.672 28.8798 144.145 28.7426C144.912 28.5199 145.675 28.2994 146.435 28.0789C146.908 27.9417 147.407 28.2049 147.547 28.6706C147.687 29.1341 147.418 29.6223 146.943 29.7595C146.182 29.98 145.42 30.2027 144.653 30.4255C144.607 30.4367 144.558 30.4457 144.513 30.4524ZM149.09 29.1206C148.663 29.1746 148.247 28.9181 148.121 28.5019C147.981 28.0384 148.25 27.5502 148.723 27.4107C149.49 27.1857 150.253 26.963 151.01 26.7402C151.484 26.6008 151.982 26.864 152.124 27.3297C152.267 27.7932 151.998 28.2814 151.523 28.4209C150.765 28.6436 150.002 28.8663 149.233 29.0913C149.187 29.1048 149.139 29.1138 149.09 29.1206ZM2.45577 46.8604C2.27432 46.8829 2.08598 46.8514 1.91371 46.7591C1.47959 46.5274 1.32111 45.9942 1.55769 45.569C1.94357 44.8783 2.43051 44.1876 3.00704 43.5149C3.32401 43.1437 3.88905 43.0964 4.26804 43.4069C4.64703 43.7174 4.69526 44.2708 4.37828 44.642C3.87756 45.227 3.45722 45.8209 3.12877 46.4081C2.98636 46.6669 2.7314 46.8266 2.45577 46.8604ZM153.668 27.7797C153.241 27.8337 152.825 27.5794 152.699 27.1632C152.556 26.6998 152.825 26.2115 153.298 26.072C154.065 25.8471 154.828 25.6221 155.584 25.3971C156.057 25.2576 156.555 25.5186 156.7 25.9821C156.842 26.4455 156.574 26.936 156.1 27.0755C155.342 27.2982 154.58 27.5232 153.813 27.7504C153.764 27.7617 153.716 27.7729 153.668 27.7797ZM158.241 26.4275C157.816 26.4815 157.4 26.2273 157.272 25.8111C157.129 25.3476 157.396 24.8594 157.869 24.7177C158.639 24.4904 159.399 24.2632 160.154 24.0382C160.628 23.8987 161.126 24.1597 161.271 24.6232C161.415 25.0866 161.147 25.5748 160.676 25.7166C159.92 25.9416 159.158 26.1688 158.388 26.396C158.338 26.4118 158.289 26.4208 158.241 26.4275ZM162.812 25.0664C162.387 25.1204 161.974 24.8662 161.843 24.4522C161.698 23.9887 161.964 23.5005 162.438 23.3588C163.207 23.1293 163.967 22.9021 164.721 22.6748C165.192 22.5331 165.695 22.7941 165.839 23.2553C165.984 23.7187 165.718 24.2092 165.247 24.3509C164.493 24.5782 163.731 24.8054 162.961 25.0349C162.911 25.0506 162.86 25.0596 162.812 25.0664ZM167.381 23.6962C166.956 23.7502 166.542 23.4983 166.414 23.0843C166.269 22.6208 166.533 22.1304 167.006 21.9886C167.776 21.7569 168.538 21.5274 169.289 21.3002C169.762 21.1585 170.263 21.4172 170.408 21.8784C170.553 22.3419 170.288 22.8323 169.815 22.9741C169.064 23.2013 168.302 23.4308 167.532 23.6625C167.479 23.6805 167.429 23.6895 167.381 23.6962ZM5.46931 43.2787C5.18909 43.3147 4.89508 43.2179 4.69066 42.9952C4.3599 42.6352 4.38977 42.0818 4.75728 41.7578C5.3361 41.2471 5.98382 40.7319 6.67979 40.2302C7.07715 39.9422 7.6376 40.0254 7.9316 40.4169C8.22561 40.8061 8.14062 41.3551 7.74096 41.643C7.09323 42.111 6.49144 42.588 5.95626 43.0604C5.81385 43.1842 5.64388 43.2562 5.46931 43.2787ZM171.945 22.3171C171.522 22.3711 171.108 22.1191 170.978 21.7074C170.831 21.2462 171.097 20.7535 171.568 20.6117C172.34 20.3778 173.1 20.146 173.849 19.9188C174.32 19.7771 174.823 20.0335 174.97 20.4948C175.117 20.9582 174.852 21.4487 174.379 21.5927C173.63 21.8199 172.868 22.0516 172.096 22.2856C172.048 22.2991 171.997 22.3104 171.945 22.3171ZM176.508 20.929C176.086 20.983 175.672 20.7332 175.541 20.3193C175.394 19.8581 175.659 19.3654 176.129 19.2214C176.904 18.9851 177.664 18.7534 178.41 18.5239C178.883 18.3799 179.384 18.6364 179.531 19.0976C179.678 19.5588 179.416 20.0515 178.943 20.1955C178.197 20.425 177.436 20.6567 176.662 20.893C176.612 20.911 176.561 20.9222 176.508 20.929ZM181.07 19.5318C180.647 19.5858 180.236 19.3361 180.103 18.9244C179.954 18.4632 180.218 17.9705 180.689 17.8265C181.467 17.588 182.228 17.354 182.967 17.1245C183.438 16.9783 183.941 17.2348 184.091 17.6982C184.24 18.1594 183.978 18.6522 183.505 18.7984C182.763 19.0279 182.003 19.2619 181.224 19.5003C181.173 19.5138 181.123 19.5251 181.07 19.5318ZM9.29827 40.4934C8.96292 40.5361 8.61837 40.3899 8.42773 40.0907C8.16359 39.6812 8.28992 39.139 8.70796 38.8825C9.36717 38.4775 10.0746 38.0681 10.8119 37.6699C11.2437 37.4359 11.7881 37.5889 12.0293 38.0141C12.2682 38.437 12.112 38.9703 11.6779 39.2042C10.9704 39.5867 10.2928 39.9782 9.66117 40.3651C9.54632 40.4349 9.4223 40.4776 9.29827 40.4934ZM185.629 18.1235C185.209 18.1752 184.796 17.9277 184.665 17.5183C184.515 17.057 184.777 16.5643 185.248 16.4181C186.034 16.1751 186.792 15.9389 187.527 15.7116C187.998 15.5654 188.501 15.8196 188.65 16.2809C188.799 16.7421 188.54 17.2348 188.069 17.381C187.334 17.6105 186.574 17.8467 185.788 18.0897C185.735 18.1054 185.682 18.1167 185.629 18.1235ZM190.189 16.7061C189.768 16.7578 189.357 16.5126 189.224 16.1031C189.075 15.6419 189.334 15.1492 189.805 15.0007C190.602 14.751 191.363 14.5147 192.084 14.2875C192.555 14.139 193.058 14.3932 193.209 14.8545C193.361 15.3157 193.101 15.8084 192.63 15.9569C191.909 16.1841 191.149 16.4203 190.35 16.6701C190.294 16.6881 190.242 16.6993 190.189 16.7061ZM13.4763 38.2211C13.1088 38.2683 12.7344 38.0838 12.5599 37.7396C12.3417 37.3054 12.5231 36.7789 12.9641 36.5652C13.6624 36.2255 14.3997 35.8858 15.1577 35.5528C15.6079 35.3548 16.1384 35.5505 16.3406 35.9915C16.5427 36.4325 16.3429 36.9522 15.8927 37.1502C15.1554 37.4741 14.4387 37.8071 13.7589 38.1356C13.6693 38.1806 13.5728 38.2098 13.4763 38.2211ZM194.748 15.2752C194.328 15.3269 193.917 15.0817 193.783 14.6745C193.632 14.2133 193.891 13.7206 194.362 13.5721C195.194 13.3111 195.954 13.0704 196.641 12.8521C197.112 12.7036 197.615 12.9556 197.769 13.4168C197.92 13.878 197.663 14.3708 197.192 14.5215C196.505 14.7397 195.743 14.9805 194.909 15.2414C194.856 15.2572 194.801 15.2684 194.748 15.2752ZM199.312 13.8308C198.894 13.8825 198.483 13.6396 198.347 13.2324C198.194 12.7711 198.451 12.2762 198.922 12.1277C200.33 11.68 201.081 11.437 201.081 11.437C201.549 11.2863 202.057 11.536 202.211 11.995C202.365 12.4539 202.11 12.9511 201.641 13.1019C201.641 13.1019 200.888 13.3448 199.475 13.7948C199.422 13.8128 199.367 13.824 199.312 13.8308ZM17.8359 36.2952C17.4454 36.3447 17.0526 36.1332 16.8964 35.7598C16.7081 35.3121 16.9263 34.7991 17.3811 34.6146C18.1023 34.3221 18.858 34.0297 19.6251 33.7417C20.0868 33.5684 20.6036 33.7957 20.7805 34.2479C20.9574 34.7001 20.7254 35.2063 20.2637 35.3796C19.5103 35.6608 18.7707 35.9488 18.0633 36.2367C17.9898 36.266 17.9117 36.2862 17.8359 36.2952ZM22.3011 34.6191C21.8922 34.6709 21.4902 34.4391 21.3455 34.0432C21.1802 33.5864 21.4213 33.087 21.8876 32.9227C22.6272 32.664 23.3921 32.4053 24.1661 32.1533C24.637 31.9981 25.1423 32.2478 25.2985 32.7068C25.4547 33.1657 25.202 33.6629 24.7335 33.8159C23.9709 34.0657 23.2152 34.3199 22.4894 34.5741C22.4274 34.5966 22.3631 34.6101 22.3011 34.6191ZM26.8397 33.1342C26.4171 33.186 26.006 32.9385 25.8727 32.5268C25.7257 32.0656 25.9876 31.5729 26.4584 31.4289C27.2072 31.1994 27.9813 30.9677 28.7622 30.7427C29.2354 30.6054 29.7338 30.8709 29.8739 31.3344C30.0141 31.7978 29.743 32.2861 29.2699 32.4233C28.5004 32.646 27.7355 32.8755 26.9959 33.1027C26.9431 33.1162 26.8903 33.1275 26.8397 33.1342ZM31.4267 31.8046C30.9925 31.8586 30.5722 31.5954 30.4528 31.1701C30.3195 30.7044 30.5975 30.2207 31.0729 30.0902C31.8355 29.881 32.6165 29.674 33.3951 29.4715C33.8729 29.3478 34.3621 29.6268 34.4884 30.0947C34.6148 30.5627 34.3299 31.0419 33.8522 31.1656C33.0827 31.3659 32.311 31.5706 31.5553 31.7776C31.5116 31.7911 31.468 31.8001 31.4267 31.8046ZM36.0549 30.6054C35.6116 30.6617 35.1844 30.385 35.0741 29.9485C34.9547 29.4783 35.2464 29.0036 35.7242 28.8843C36.4913 28.6953 37.2792 28.5086 38.0601 28.3264C38.5425 28.2161 39.0225 28.5064 39.1374 28.9766C39.2522 29.4468 38.9536 29.9192 38.4736 30.0317C37.6995 30.2117 36.9185 30.3985 36.1583 30.5829C36.1238 30.5942 36.0894 30.6009 36.0549 30.6054ZM40.713 29.5233C40.2606 29.5795 39.8287 29.2915 39.7277 28.8461C39.6197 28.3736 39.9229 27.9057 40.4053 27.7999C41.1885 27.6267 41.9809 27.4602 42.7573 27.2982C43.2419 27.197 43.7151 27.5007 43.8185 27.9754C43.9195 28.4501 43.6117 28.9136 43.1271 29.0148C42.3576 29.1745 41.5744 29.341 40.7957 29.512C40.7705 29.5165 40.7406 29.521 40.713 29.5233ZM45.4056 28.5559C44.9416 28.6143 44.5052 28.3106 44.4157 27.8562C44.3215 27.3815 44.6362 26.9202 45.1208 26.828C46.6161 26.54 47.4774 26.396 47.5119 26.3893C47.9919 26.306 48.4605 26.6278 48.5455 27.107C48.6282 27.5839 48.302 28.0361 47.8151 28.1194C47.8059 28.1216 46.9377 28.2656 45.4676 28.5491C45.4447 28.5513 45.4263 28.5536 45.4056 28.5559Z" fill="white" fill-opacity="0.5"/>
<path d="M185.383 38.7753L227.906 7.77832L186.394 15.3942L190.525 21.8673L183.112 32.2565L185.383 38.7753Z" fill="#B7EE81"/>
<path d="M185.383 38.7753L227.906 7.77832L186.394 15.3942L190.525 21.8673L183.112 32.2565L185.383 38.7753Z" fill="black" fill-opacity="0.2"/>
<path d="M227.906 7.77832L180.985 22.3305L149.101 50.3409L227.906 7.77832Z" fill="#B7EE81"/>
<path d="M227.906 7.77832L180.985 22.3305L149.101 50.3409L227.906 7.77832Z" fill="white" fill-opacity="0.5"/>
<path d="M186.394 15.3945L227.906 7.77861L182.51 0.753906L186.394 15.3945Z" fill="#B7EE81"/>
<path d="M186.394 15.3945L227.906 7.77861L182.51 0.753906L186.394 15.3945Z" fill="white" fill-opacity="0.5"/>
</svg>
