<svg width="229" height="67" viewBox="0 0 229 67" fill="none" xmlns="http://www.w3.org/2000/svg">
<path d="M199.203 64.9902C199.642 65.0516 200.079 65.113 200.508 65.1693C201.003 65.2358 201.451 64.8469 201.511 64.2993C201.571 63.7543 201.222 63.2605 200.732 63.1914C200.73 63.1914 200.728 63.1914 200.725 63.1914C199.949 63.0865 199.159 62.9765 198.355 62.8562C198.353 62.8562 198.353 62.8562 198.351 62.8562C197.861 62.7871 197.41 63.1684 197.343 63.7134C197.279 64.2584 197.623 64.7599 198.117 64.8341C198.482 64.8878 198.845 64.939 199.203 64.9902ZM195.743 64.4682C196.228 64.5373 196.676 64.1612 196.747 63.6213C196.819 63.0763 196.477 62.5722 195.985 62.4929C195.207 62.3675 194.417 62.237 193.617 62.1014C193.118 62.0144 192.666 62.3905 192.589 62.9355C192.513 63.4805 192.85 63.9897 193.34 64.0716C194.146 64.2098 194.941 64.3428 195.724 64.4682C195.733 64.4656 195.738 64.4656 195.743 64.4682ZM202.888 65.4712C202.894 65.4712 202.901 65.4738 202.906 65.4738C203.721 65.571 204.53 65.658 205.308 65.7347C205.803 65.7834 206.242 65.3791 206.286 64.8315C206.329 64.284 205.962 63.8055 205.47 63.7492C204.701 63.6724 203.902 63.5854 203.095 63.4908C202.601 63.4319 202.158 63.8285 202.104 64.3761C202.056 64.916 202.405 65.4021 202.888 65.4712ZM190.996 63.6545C191.474 63.7236 191.92 63.3577 191.998 62.8255C192.079 62.2831 191.746 61.7688 191.254 61.6818C190.476 61.541 189.688 61.3952 188.891 61.2443C188.408 61.1496 187.935 61.5155 187.852 62.0579C187.768 62.6004 188.096 63.1172 188.586 63.2093C189.388 63.3603 190.18 63.5087 190.963 63.6494C190.975 63.652 190.984 63.6545 190.996 63.6545ZM207.669 65.9446C207.685 65.9471 207.704 65.9497 207.722 65.9497C208.552 66.0137 209.365 66.0674 210.139 66.1058C210.635 66.1314 211.056 65.7066 211.079 65.1565C211.102 64.6064 210.719 64.1407 210.222 64.1151C209.462 64.0767 208.663 64.0255 207.847 63.9616C207.351 63.9232 206.921 64.3377 206.886 64.8853C206.854 65.4149 207.2 65.878 207.669 65.9446ZM186.26 62.7564C186.733 62.823 187.175 62.4673 187.26 61.9428C187.348 61.4003 187.022 60.8835 186.533 60.7862C185.754 60.6327 184.969 60.4741 184.174 60.3103C183.684 60.208 183.215 60.5662 183.125 61.1086C183.035 61.6511 183.356 62.1705 183.846 62.2703C184.643 62.434 185.433 62.5927 186.216 62.7488C186.23 62.7513 186.244 62.7539 186.26 62.7564ZM212.465 66.1825C212.497 66.1876 212.532 66.1902 212.567 66.1902C213.41 66.2056 214.23 66.203 215.001 66.1851C215.498 66.1723 215.893 65.7168 215.881 65.1667C215.87 64.6166 215.459 64.1791 214.962 64.1919C214.214 64.2098 213.417 64.2123 212.597 64.197C212.1 64.1867 211.691 64.6268 211.682 65.177C211.673 65.6913 212.014 66.1211 212.465 66.1825ZM181.536 61.7867C182.003 61.8532 182.444 61.5052 182.534 60.9858C182.629 60.4459 182.307 59.924 181.82 59.8191C181.042 59.6527 180.258 59.4839 179.466 59.3124C178.974 59.205 178.505 59.5581 178.408 60.098C178.311 60.6378 178.63 61.1624 179.117 61.2698C179.912 61.4438 180.7 61.6127 181.48 61.779C181.497 61.7816 181.517 61.7841 181.536 61.7867ZM176.821 60.7555C177.285 60.8221 177.722 60.4792 177.817 59.9649C177.916 59.425 177.6 58.9005 177.115 58.7905C176.336 58.6165 175.553 58.4374 174.765 58.2557C174.275 58.1431 173.802 58.4911 173.7 59.0284C173.599 59.5683 173.913 60.0954 174.398 60.208C175.188 60.3897 175.976 60.5688 176.754 60.7453C176.777 60.7479 176.8 60.753 176.821 60.7555ZM172.118 59.6732C172.578 59.7372 173.014 59.402 173.111 58.8903C173.215 58.3529 172.903 57.8233 172.418 57.7081C171.64 57.5265 170.859 57.3397 170.074 57.1503C169.591 57.0326 169.108 57.3755 169.004 57.9128C168.898 58.4502 169.207 58.9824 169.692 59.0975C170.48 59.2868 171.266 59.4736 172.044 59.6553C172.069 59.6655 172.095 59.6707 172.118 59.6732ZM217.261 66.0546C217.321 66.0623 217.381 66.0648 217.443 66.0597C218.314 65.9881 219.139 65.8883 219.896 65.7629C220.388 65.681 220.726 65.1744 220.652 64.6294C220.578 64.0844 220.12 63.7083 219.628 63.7902C218.917 63.9079 218.136 64.0025 217.309 64.069C216.812 64.11 216.441 64.5885 216.477 65.136C216.512 65.6196 216.847 65.9957 217.261 66.0546ZM167.424 58.5474C167.881 58.6114 168.316 58.2813 168.415 57.7747C168.521 57.2373 168.216 56.7051 167.731 56.5874C166.955 56.3981 166.174 56.2036 165.391 56.0092C164.904 55.8889 164.426 56.2267 164.315 56.764C164.206 57.3013 164.511 57.8335 164.996 57.9538C165.781 58.1508 166.565 58.3427 167.343 58.532C167.368 58.5397 167.396 58.5423 167.424 58.5474ZM162.737 57.3806C163.192 57.4446 163.624 57.1171 163.728 56.613C163.839 56.0757 163.536 55.5409 163.051 55.4181C162.275 55.2211 161.496 55.0241 160.713 54.8219C160.228 54.6966 159.745 55.0318 159.635 55.5691C159.521 56.1064 159.824 56.6412 160.309 56.7665C161.094 56.9687 161.875 57.1657 162.654 57.3627C162.679 57.373 162.707 57.3781 162.737 57.3806ZM158.057 56.1806C158.507 56.2446 158.939 55.9222 159.045 55.4207C159.159 54.8859 158.858 54.3486 158.376 54.2232C157.599 54.0211 156.821 53.8164 156.04 53.6117C155.555 53.4837 155.072 53.8164 154.957 54.3511C154.841 54.8859 155.139 55.4232 155.624 55.5512C156.407 55.7584 157.188 55.9631 157.964 56.1652C157.994 56.1704 158.027 56.1755 158.057 56.1806ZM221.996 65.2307C222.112 65.246 222.229 65.2384 222.347 65.2025C223.269 64.9211 224.082 64.5757 224.766 64.174C225.205 63.9155 225.371 63.3117 225.14 62.8255C224.907 62.3394 224.362 62.1551 223.923 62.411C223.354 62.7436 222.666 63.0353 221.871 63.2784C221.391 63.4243 221.109 63.9718 221.241 64.504C221.342 64.9057 221.647 65.1821 221.996 65.2307ZM153.384 54.9473C153.834 55.0113 154.264 54.6914 154.372 54.1925C154.49 53.6577 154.192 53.1179 153.709 52.9899C152.935 52.7827 152.157 52.5728 151.376 52.363C150.893 52.2325 150.406 52.5601 150.288 53.0948C150.17 53.6296 150.466 54.1695 150.949 54.3C151.73 54.5098 152.508 54.7196 153.284 54.9268C153.319 54.9371 153.351 54.9422 153.384 54.9473ZM148.717 53.6859C149.165 53.7498 149.593 53.4326 149.704 52.9362C149.824 52.4014 149.528 51.8615 149.045 51.7285C148.271 51.5161 147.495 51.3037 146.717 51.0888C146.236 50.9558 145.747 51.2807 145.626 51.8155C145.506 52.3502 145.8 52.8901 146.283 53.0232C147.061 53.2381 147.839 53.453 148.616 53.6654C148.65 53.6731 148.683 53.6808 148.717 53.6859ZM144.058 52.3989C144.504 52.4628 144.931 52.1481 145.044 51.6543C145.167 51.1195 144.873 50.5796 144.391 50.444C143.617 50.2291 142.841 50.0116 142.064 49.7916C141.582 49.6559 141.092 49.9783 140.969 50.5105C140.847 51.0453 141.138 51.5878 141.621 51.7234C142.399 51.9434 143.176 52.1609 143.952 52.3758C143.986 52.3861 144.021 52.3937 144.058 52.3989ZM139.401 51.0863C139.844 51.1502 140.272 50.8381 140.385 50.3442C140.507 49.812 140.219 49.267 139.736 49.1314C138.962 48.9114 138.188 48.6888 137.412 48.4687C136.932 48.3305 136.439 48.6504 136.315 49.1851C136.19 49.7174 136.479 50.2624 136.962 50.4005C137.738 50.6231 138.514 50.8457 139.29 51.0658C139.329 51.0735 139.366 51.0811 139.401 51.0863ZM134.76 49.7557C135.201 49.8197 135.629 49.5101 135.744 49.0188C135.869 48.4866 135.582 47.9416 135.1 47.8034C134.328 47.5808 133.554 47.3557 132.783 47.1305C132.302 46.9923 131.81 47.3096 131.683 47.8418C131.556 48.374 131.845 48.919 132.325 49.0598C133.099 49.2849 133.873 49.5101 134.647 49.7327C134.684 49.7429 134.721 49.7506 134.76 49.7557ZM226.064 62.6131C226.381 62.6566 226.706 62.5159 226.907 62.2089C226.96 62.127 227.011 62.0451 227.06 61.9607C227.503 61.1905 227.866 60.4127 228.141 59.6451C228.323 59.1333 228.097 58.5551 227.635 58.3529C227.173 58.1508 226.651 58.4016 226.468 58.9133C226.237 59.5606 225.925 60.2259 225.544 60.886C225.514 60.9372 225.484 60.9858 225.452 61.0344C225.161 61.4796 225.249 62.104 225.653 62.4264C225.775 62.5313 225.919 62.5927 226.064 62.6131ZM130.119 48.4048C130.56 48.4662 130.986 48.1591 131.103 47.6704C131.23 47.1382 130.944 46.5932 130.463 46.4525C129.69 46.2247 128.916 45.997 128.142 45.7693C127.659 45.626 127.169 45.9433 127.04 46.4755C126.911 47.0077 127.197 47.5527 127.678 47.696C128.451 47.9263 129.228 48.154 130.001 48.3817C130.041 48.3894 130.08 48.3971 130.119 48.4048ZM125.471 47.0282C125.91 47.0896 126.335 46.7851 126.453 46.2989C126.583 45.7667 126.298 45.2192 125.818 45.0759C125.042 44.8456 124.268 44.6128 123.492 44.3799C123.009 44.2366 122.517 44.5514 122.388 45.081C122.258 45.6132 122.542 46.1608 123.021 46.3041C123.797 46.5369 124.573 46.7697 125.349 47C125.391 47.0154 125.432 47.0231 125.471 47.0282ZM120.828 45.6362C121.267 45.6977 121.69 45.3957 121.81 44.9096C121.942 44.3774 121.658 43.8298 121.179 43.6865C120.408 43.4537 119.636 43.2208 118.865 42.9854C118.387 42.8396 117.89 43.1518 117.758 43.684C117.627 44.2162 117.908 44.7637 118.389 44.9096C119.16 45.145 119.934 45.3778 120.706 45.6106C120.745 45.6209 120.787 45.6311 120.828 45.6362ZM116.194 44.229C116.631 44.2904 117.054 43.9884 117.176 43.5049C117.308 42.9752 117.028 42.4251 116.548 42.2792C115.776 42.0438 115.005 41.8059 114.235 41.5705C113.757 41.4246 113.261 41.7342 113.127 42.2639C112.995 42.7935 113.274 43.3437 113.753 43.4921C114.524 43.73 115.296 43.9654 116.067 44.2034C116.111 44.2136 116.153 44.2213 116.194 44.229ZM111.567 42.8063C112.004 42.8677 112.427 42.5684 112.547 42.0848C112.681 41.5551 112.401 41.005 111.921 40.8566C111.149 40.6187 110.378 40.3781 109.608 40.1402C109.13 39.9918 108.634 40.3014 108.5 40.831C108.366 41.3607 108.645 41.9108 109.123 42.0592C109.893 42.2997 110.664 42.5377 111.438 42.7756C111.482 42.7884 111.523 42.7987 111.567 42.8063ZM106.943 41.3684C107.377 41.4298 107.8 41.1304 107.922 40.6494C108.056 40.1197 107.779 39.5696 107.301 39.4186C106.529 39.1781 105.76 38.935 104.991 38.6945C104.513 38.5436 104.016 38.8532 103.88 39.3802C103.743 39.9099 104.02 40.46 104.499 40.611C105.268 40.8515 106.039 41.0946 106.811 41.3351C106.855 41.3504 106.899 41.3607 106.943 41.3684ZM102.323 39.915C102.757 39.9764 103.177 39.6796 103.302 39.1986C103.438 38.6689 103.161 38.1188 102.683 37.9653C101.911 37.7222 101.142 37.4791 100.375 37.2335C99.8994 37.0825 99.3981 37.387 99.2618 37.9167C99.1255 38.4463 99.4004 38.999 99.8786 39.15C100.648 39.393 101.417 39.6387 102.189 39.8818C102.233 39.8997 102.276 39.9099 102.323 39.915ZM227.753 57.6954C227.764 57.6979 227.776 57.6979 227.785 57.7005C228.279 57.7491 228.718 57.3474 228.762 56.7972C228.843 55.8173 228.783 54.8347 228.582 53.8701C228.471 53.3328 227.988 52.9976 227.503 53.123C227.018 53.2458 226.716 53.7806 226.829 54.3179C226.986 55.0752 227.034 55.848 226.972 56.6156C226.928 57.1529 227.277 57.6288 227.753 57.6954ZM97.7049 38.4489C98.1369 38.5103 98.5573 38.216 98.682 37.735C98.8206 37.2054 98.5434 36.6527 98.0652 36.5017C97.2937 36.2561 96.5244 36.0105 95.7598 35.7648C95.2793 35.6113 94.7827 35.9158 94.6441 36.4454C94.5055 36.9751 94.7804 37.5278 95.2585 37.6813C96.0255 37.9269 96.7947 38.1725 97.5663 38.4182C97.6148 38.4335 97.6587 38.4412 97.7049 38.4489ZM93.0894 36.97C93.5214 37.0314 93.9418 36.7371 94.0666 36.2586C94.2052 35.729 93.9303 35.1763 93.4544 35.0228C92.6829 34.7746 91.9136 34.5264 91.149 34.2782C90.6708 34.1247 90.1718 34.4266 90.0332 34.9563C89.8946 35.4859 90.1672 36.0386 90.6454 36.1921C91.4123 36.4403 92.1816 36.6885 92.9531 36.9367C92.997 36.9521 93.0432 36.9648 93.0894 36.97ZM88.4786 35.4782C88.9106 35.5397 89.3287 35.2454 89.4557 34.7695C89.5943 34.2398 89.3217 33.6872 88.8459 33.5336C88.0743 33.2829 87.3074 33.0321 86.5428 32.784C86.0646 32.6279 85.5657 32.9298 85.4247 33.4594C85.2838 33.9891 85.5564 34.5418 86.0346 34.6978C86.7992 34.9486 87.5685 35.1968 88.34 35.4475C88.3862 35.4629 88.4324 35.4731 88.4786 35.4782ZM83.8701 33.9763C84.2998 34.0377 84.7202 33.746 84.8472 33.2701C84.9881 32.743 84.7156 32.1878 84.2397 32.0317C83.4682 31.7784 82.7012 31.5276 81.9366 31.2769C81.4607 31.1208 80.9594 31.4202 80.8185 31.9498C80.6776 32.4769 80.9479 33.0321 81.4261 33.1882C82.1907 33.439 82.9576 33.6923 83.7292 33.9456C83.7754 33.9584 83.8239 33.9686 83.8701 33.9763ZM79.2662 32.4616C79.6959 32.523 80.114 32.2313 80.241 31.7579C80.3819 31.2308 80.1117 30.6756 79.6358 30.5169C78.8642 30.2611 78.0973 30.0078 77.335 29.7545C76.8591 29.5958 76.3579 29.8952 76.2146 30.4248C76.0714 30.9519 76.3417 31.5072 76.8199 31.6658C77.5822 31.9191 78.3491 32.1724 79.123 32.4283C79.1692 32.4436 79.2177 32.4539 79.2662 32.4616ZM226.739 52.6368C226.921 52.6624 227.111 52.6266 227.284 52.5217C227.72 52.2581 227.88 51.6517 227.642 51.1681C227.254 50.3826 226.764 49.5971 226.184 48.832C225.865 48.4099 225.297 48.3561 224.916 48.7092C224.535 49.0623 224.486 49.6918 224.805 50.114C225.309 50.7792 225.731 51.4547 226.062 52.1225C226.205 52.4168 226.461 52.5984 226.739 52.6368ZM74.6623 30.9366C75.092 30.998 75.5101 30.7089 75.6371 30.2355C75.7804 29.7084 75.5101 29.1532 75.0342 28.9945C74.2627 28.7387 73.4957 28.4828 72.7357 28.2269C72.2599 28.0683 71.7586 28.3651 71.6131 28.8922C71.4698 29.4193 71.7401 29.9771 72.216 30.1357C72.9783 30.389 73.7452 30.6449 74.5168 30.9033C74.5653 30.9161 74.6138 30.9289 74.6623 30.9366ZM70.063 29.3988C70.4904 29.4602 70.9085 29.1711 71.0379 28.6977C71.1811 28.1706 70.9131 27.6154 70.4373 27.4542C69.6634 27.1958 68.8988 26.9373 68.1388 26.6815C67.6629 26.5228 67.1616 26.8196 67.0161 27.3467C66.8706 27.8738 67.1409 28.4291 67.6144 28.5903C68.3744 28.8461 69.1413 29.1045 69.9152 29.363C69.966 29.3809 70.0145 29.3911 70.063 29.3988ZM65.4661 27.8508C65.8934 27.9122 66.3092 27.6231 66.4409 27.1523C66.5864 26.6252 66.3185 26.0699 65.8426 25.9087C65.0687 25.6478 64.3041 25.3893 63.5464 25.1309C63.0729 24.9697 62.567 25.2665 62.4214 25.791C62.2759 26.3181 62.5439 26.8759 63.0174 27.0371C63.7751 27.2956 64.5421 27.554 65.3159 27.815C65.3667 27.8329 65.4176 27.8431 65.4661 27.8508ZM60.8714 26.2925C61.2988 26.354 61.7146 26.0674 61.8439 25.5966C61.9895 25.0695 61.7238 24.5117 61.2479 24.3505C60.4741 24.087 59.7072 23.826 58.9518 23.5675C58.4759 23.4064 57.9723 23.7006 57.8268 24.2251C57.6813 24.7522 57.9469 25.31 58.4228 25.4712C59.1782 25.7296 59.9451 25.9906 60.7189 26.2542C60.7721 26.2746 60.8229 26.2849 60.8714 26.2925ZM223.708 48.5634C223.99 48.6043 224.285 48.4943 224.491 48.241C224.824 47.8316 224.794 47.2022 224.424 46.8337C223.842 46.2529 223.19 45.667 222.49 45.0964C222.091 44.7689 221.527 44.8635 221.231 45.3087C220.936 45.7514 221.021 46.3757 221.423 46.7032C222.075 47.2354 222.68 47.7779 223.218 48.3152C223.361 48.4559 223.532 48.5378 223.708 48.5634ZM56.2814 24.7241C56.7064 24.7855 57.1222 24.4989 57.2539 24.0307C57.4017 23.5061 57.1338 22.9458 56.6602 22.7846C55.8841 22.5185 55.1194 22.2549 54.3663 21.9965C53.8928 21.8353 53.3869 22.127 53.2391 22.6515C53.0912 23.1786 53.3569 23.7364 53.8327 23.9002C54.5858 24.1586 55.3527 24.4222 56.1289 24.6883C56.1774 24.7036 56.2283 24.7164 56.2814 24.7241ZM51.6913 23.1454C52.1164 23.2068 52.5322 22.9228 52.6639 22.452C52.8117 21.9274 52.5461 21.3671 52.0725 21.2033C51.294 20.9347 50.5294 20.6711 49.7786 20.4101C49.3028 20.2464 48.7992 20.538 48.6513 21.0626C48.5035 21.5871 48.7669 22.1475 49.2427 22.3112C49.9935 22.5722 50.7581 22.8358 51.5366 23.1044C51.5874 23.1249 51.6382 23.1377 51.6913 23.1454ZM47.1036 21.5564C47.5287 21.6178 47.9422 21.3338 48.0761 20.8656C48.2263 20.341 47.9607 19.7807 47.4871 19.6169C46.704 19.3457 45.9394 19.0796 45.1955 18.8186C44.722 18.6523 44.2161 18.944 44.0659 19.4711C43.9158 19.9956 44.1791 20.556 44.655 20.7223C45.4011 20.9833 46.1657 21.2494 46.9489 21.5206C46.9997 21.5359 47.0505 21.5487 47.1036 21.5564ZM219.857 45.3957C220.194 45.4443 220.541 45.278 220.733 44.9377C220.998 44.472 220.871 43.8554 220.451 43.5637C219.788 43.1031 219.076 42.6375 218.335 42.1846C217.9 41.9185 217.353 42.0925 217.11 42.576C216.87 43.0571 217.027 43.6635 217.464 43.9296C218.175 44.3646 218.857 44.8098 219.492 45.2499C219.608 45.3292 219.732 45.3778 219.857 45.3957ZM42.5182 19.9547C42.941 20.0135 43.3568 19.7321 43.4884 19.2664C43.6386 18.7419 43.3752 18.1815 42.9017 18.0152C42.1116 17.7388 41.3493 17.4702 40.6101 17.2118C40.1366 17.0454 39.6307 17.3346 39.4805 17.8591C39.3304 18.3836 39.5914 18.944 40.065 19.1103C40.8042 19.3713 41.5688 19.64 42.3588 19.9163C42.4119 19.9342 42.4651 19.947 42.5182 19.9547ZM37.9328 18.3427C38.3555 18.4016 38.769 18.1226 38.903 17.657C39.0532 17.1324 38.7921 16.5721 38.3186 16.4032C37.517 16.1192 36.7524 15.8505 36.027 15.5921C35.5535 15.4232 35.0476 15.7124 34.8951 16.2369C34.7427 16.7614 35.0037 17.3218 35.4772 17.4907C36.2026 17.7491 36.9672 18.0177 37.7711 18.3018C37.8265 18.3222 37.8797 18.335 37.9328 18.3427ZM215.655 42.8114C216.025 42.8652 216.401 42.6554 216.577 42.2639C216.796 41.7701 216.614 41.1713 216.17 40.9283C215.468 40.5419 214.726 40.1555 213.964 39.7768C213.511 39.5517 212.978 39.7743 212.774 40.2758C212.571 40.7773 212.772 41.3684 213.225 41.5935C213.966 41.962 214.687 42.3407 215.371 42.7142C215.461 42.7654 215.558 42.7987 215.655 42.8114ZM33.3474 16.7154C33.7701 16.7742 34.1836 16.4953 34.3176 16.0322C34.4701 15.5077 34.209 14.9473 33.7355 14.7784C32.8992 14.4816 32.1346 14.2079 31.4439 13.9597C30.9704 13.7908 30.4645 14.0774 30.3097 14.6019C30.1572 15.1264 30.4159 15.6868 30.8895 15.8582C31.5802 16.1064 32.3472 16.3802 33.1857 16.677C33.2388 16.6949 33.2943 16.7077 33.3474 16.7154ZM28.7574 15.0727C29.1778 15.1315 29.5913 14.8552 29.7276 14.3921C29.8824 13.8676 29.6236 13.3046 29.1501 13.1358C27.734 12.6266 26.9786 12.3502 26.9786 12.3502C26.5074 12.1788 25.9969 12.4628 25.8421 12.9848C25.6873 13.5068 25.9437 14.0722 26.415 14.2437C26.415 14.2437 27.1727 14.52 28.5933 15.0318C28.6465 15.0522 28.7019 15.065 28.7574 15.0727ZM211.271 40.6212C211.663 40.6775 212.058 40.437 212.215 40.0123C212.405 39.5031 212.185 38.9197 211.728 38.7099C211.003 38.3772 210.243 38.0446 209.471 37.7171C209.007 37.5201 208.487 37.7785 208.309 38.2928C208.131 38.8071 208.365 39.3828 208.829 39.5798C209.587 39.8997 210.33 40.2272 211.042 40.5547C211.116 40.588 211.194 40.611 211.271 40.6212ZM206.78 38.715C207.191 38.7738 207.595 38.5103 207.741 38.06C207.907 37.5406 207.665 36.9725 207.196 36.7857C206.452 36.4915 205.683 36.1972 204.904 35.9107C204.431 35.7341 203.922 36.0181 203.765 36.5401C203.608 37.0621 203.862 37.6276 204.334 37.8015C205.101 38.0856 205.861 38.3747 206.591 38.6638C206.653 38.6894 206.718 38.7048 206.78 38.715ZM202.215 37.0263C202.64 37.0851 203.054 36.8036 203.188 36.3354C203.336 35.8109 203.072 35.2505 202.599 35.0868C201.846 34.8258 201.067 34.5622 200.282 34.3064C199.806 34.1503 199.305 34.4522 199.164 34.9793C199.023 35.5064 199.295 36.0616 199.771 36.2177C200.545 36.471 201.314 36.732 202.058 36.9904C202.111 37.0058 202.164 37.0186 202.215 37.0263ZM197.602 35.5141C198.039 35.5755 198.462 35.2761 198.582 34.7925C198.716 34.2629 198.436 33.7128 197.958 33.5644C197.191 33.3264 196.406 33.091 195.622 32.8607C195.142 32.72 194.65 33.0373 194.523 33.5695C194.396 34.1017 194.682 34.6467 195.163 34.7874C195.937 35.0151 196.713 35.248 197.473 35.4834C197.517 35.4987 197.561 35.509 197.602 35.5141ZM192.947 34.1503C193.393 34.2143 193.823 33.8995 193.934 33.4032C194.054 32.8684 193.761 32.3285 193.28 32.1929C192.509 31.978 191.716 31.7656 190.931 31.5583C190.446 31.433 189.963 31.763 189.847 32.2978C189.732 32.8326 190.032 33.3699 190.515 33.4978C191.293 33.7025 192.079 33.9149 192.844 34.1247C192.878 34.1375 192.913 34.1452 192.947 34.1503ZM188.263 32.9196C188.718 32.9835 189.152 32.656 189.254 32.1494C189.362 31.6121 189.057 31.0799 188.572 30.9596C187.785 30.7626 186.988 30.5732 186.207 30.389C185.719 30.2739 185.244 30.6193 185.14 31.1592C185.038 31.6991 185.347 32.2261 185.835 32.3413C186.609 32.523 187.396 32.7123 188.18 32.9068C188.205 32.9119 188.235 32.917 188.263 32.9196ZM183.543 31.8193C184.01 31.8858 184.449 31.5404 184.539 31.0236C184.634 30.4837 184.317 29.9592 183.83 29.8543C182.326 29.5267 181.46 29.363 181.425 29.3553C180.942 29.2606 180.471 29.6265 180.386 30.1715C180.302 30.714 180.63 31.2283 181.12 31.3229C181.129 31.3255 182.003 31.4892 183.481 31.8116C183.504 31.8142 183.523 31.8168 183.543 31.8193Z" fill="#B7EE81"/>
<path d="M199.203 64.9902C199.642 65.0516 200.079 65.113 200.508 65.1693C201.003 65.2358 201.451 64.8469 201.511 64.2993C201.571 63.7543 201.222 63.2605 200.732 63.1914C200.73 63.1914 200.728 63.1914 200.725 63.1914C199.949 63.0865 199.159 62.9765 198.355 62.8562C198.353 62.8562 198.353 62.8562 198.351 62.8562C197.861 62.7871 197.41 63.1684 197.343 63.7134C197.279 64.2584 197.623 64.7599 198.117 64.8341C198.482 64.8878 198.845 64.939 199.203 64.9902ZM195.743 64.4682C196.228 64.5373 196.676 64.1612 196.747 63.6213C196.819 63.0763 196.477 62.5722 195.985 62.4929C195.207 62.3675 194.417 62.237 193.617 62.1014C193.118 62.0144 192.666 62.3905 192.589 62.9355C192.513 63.4805 192.85 63.9897 193.34 64.0716C194.146 64.2098 194.941 64.3428 195.724 64.4682C195.733 64.4656 195.738 64.4656 195.743 64.4682ZM202.888 65.4712C202.894 65.4712 202.901 65.4738 202.906 65.4738C203.721 65.571 204.53 65.658 205.308 65.7347C205.803 65.7834 206.242 65.3791 206.286 64.8315C206.329 64.284 205.962 63.8055 205.47 63.7492C204.701 63.6724 203.902 63.5854 203.095 63.4908C202.601 63.4319 202.158 63.8285 202.104 64.3761C202.056 64.916 202.405 65.4021 202.888 65.4712ZM190.996 63.6545C191.474 63.7236 191.92 63.3577 191.998 62.8255C192.079 62.2831 191.746 61.7688 191.254 61.6818C190.476 61.541 189.688 61.3952 188.891 61.2443C188.408 61.1496 187.935 61.5155 187.852 62.0579C187.768 62.6004 188.096 63.1172 188.586 63.2093C189.388 63.3603 190.18 63.5087 190.963 63.6494C190.975 63.652 190.984 63.6545 190.996 63.6545ZM207.669 65.9446C207.685 65.9471 207.704 65.9497 207.722 65.9497C208.552 66.0137 209.365 66.0674 210.139 66.1058C210.635 66.1314 211.056 65.7066 211.079 65.1565C211.102 64.6064 210.719 64.1407 210.222 64.1151C209.462 64.0767 208.663 64.0255 207.847 63.9616C207.351 63.9232 206.921 64.3377 206.886 64.8853C206.854 65.4149 207.2 65.878 207.669 65.9446ZM186.26 62.7564C186.733 62.823 187.175 62.4673 187.26 61.9428C187.348 61.4003 187.022 60.8835 186.533 60.7862C185.754 60.6327 184.969 60.4741 184.174 60.3103C183.684 60.208 183.215 60.5662 183.125 61.1086C183.035 61.6511 183.356 62.1705 183.846 62.2703C184.643 62.434 185.433 62.5927 186.216 62.7488C186.23 62.7513 186.244 62.7539 186.26 62.7564ZM212.465 66.1825C212.497 66.1876 212.532 66.1902 212.567 66.1902C213.41 66.2056 214.23 66.203 215.001 66.1851C215.498 66.1723 215.893 65.7168 215.881 65.1667C215.87 64.6166 215.459 64.1791 214.962 64.1919C214.214 64.2098 213.417 64.2123 212.597 64.197C212.1 64.1867 211.691 64.6268 211.682 65.177C211.673 65.6913 212.014 66.1211 212.465 66.1825ZM181.536 61.7867C182.003 61.8532 182.444 61.5052 182.534 60.9858C182.629 60.4459 182.307 59.924 181.82 59.8191C181.042 59.6527 180.258 59.4839 179.466 59.3124C178.974 59.205 178.505 59.5581 178.408 60.098C178.311 60.6378 178.63 61.1624 179.117 61.2698C179.912 61.4438 180.7 61.6127 181.48 61.779C181.497 61.7816 181.517 61.7841 181.536 61.7867ZM176.821 60.7555C177.285 60.8221 177.722 60.4792 177.817 59.9649C177.916 59.425 177.6 58.9005 177.115 58.7905C176.336 58.6165 175.553 58.4374 174.765 58.2557C174.275 58.1431 173.802 58.4911 173.7 59.0284C173.599 59.5683 173.913 60.0954 174.398 60.208C175.188 60.3897 175.976 60.5688 176.754 60.7453C176.777 60.7479 176.8 60.753 176.821 60.7555ZM172.118 59.6732C172.578 59.7372 173.014 59.402 173.111 58.8903C173.215 58.3529 172.903 57.8233 172.418 57.7081C171.64 57.5265 170.859 57.3397 170.074 57.1503C169.591 57.0326 169.108 57.3755 169.004 57.9128C168.898 58.4502 169.207 58.9824 169.692 59.0975C170.48 59.2868 171.266 59.4736 172.044 59.6553C172.069 59.6655 172.095 59.6707 172.118 59.6732ZM217.261 66.0546C217.321 66.0623 217.381 66.0648 217.443 66.0597C218.314 65.9881 219.139 65.8883 219.896 65.7629C220.388 65.681 220.726 65.1744 220.652 64.6294C220.578 64.0844 220.12 63.7083 219.628 63.7902C218.917 63.9079 218.136 64.0025 217.309 64.069C216.812 64.11 216.441 64.5885 216.477 65.136C216.512 65.6196 216.847 65.9957 217.261 66.0546ZM167.424 58.5474C167.881 58.6114 168.316 58.2813 168.415 57.7747C168.521 57.2373 168.216 56.7051 167.731 56.5874C166.955 56.3981 166.174 56.2036 165.391 56.0092C164.904 55.8889 164.426 56.2267 164.315 56.764C164.206 57.3013 164.511 57.8335 164.996 57.9538C165.781 58.1508 166.565 58.3427 167.343 58.532C167.368 58.5397 167.396 58.5423 167.424 58.5474ZM162.737 57.3806C163.192 57.4446 163.624 57.1171 163.728 56.613C163.839 56.0757 163.536 55.5409 163.051 55.4181C162.275 55.2211 161.496 55.0241 160.713 54.8219C160.228 54.6966 159.745 55.0318 159.635 55.5691C159.521 56.1064 159.824 56.6412 160.309 56.7665C161.094 56.9687 161.875 57.1657 162.654 57.3627C162.679 57.373 162.707 57.3781 162.737 57.3806ZM158.057 56.1806C158.507 56.2446 158.939 55.9222 159.045 55.4207C159.159 54.8859 158.858 54.3486 158.376 54.2232C157.599 54.0211 156.821 53.8164 156.04 53.6117C155.555 53.4837 155.072 53.8164 154.957 54.3511C154.841 54.8859 155.139 55.4232 155.624 55.5512C156.407 55.7584 157.188 55.9631 157.964 56.1652C157.994 56.1704 158.027 56.1755 158.057 56.1806ZM221.996 65.2307C222.112 65.246 222.229 65.2384 222.347 65.2025C223.269 64.9211 224.082 64.5757 224.766 64.174C225.205 63.9155 225.371 63.3117 225.14 62.8255C224.907 62.3394 224.362 62.1551 223.923 62.411C223.354 62.7436 222.666 63.0353 221.871 63.2784C221.391 63.4243 221.109 63.9718 221.241 64.504C221.342 64.9057 221.647 65.1821 221.996 65.2307ZM153.384 54.9473C153.834 55.0113 154.264 54.6914 154.372 54.1925C154.49 53.6577 154.192 53.1179 153.709 52.9899C152.935 52.7827 152.157 52.5728 151.376 52.363C150.893 52.2325 150.406 52.5601 150.288 53.0948C150.17 53.6296 150.466 54.1695 150.949 54.3C151.73 54.5098 152.508 54.7196 153.284 54.9268C153.319 54.9371 153.351 54.9422 153.384 54.9473ZM148.717 53.6859C149.165 53.7498 149.593 53.4326 149.704 52.9362C149.824 52.4014 149.528 51.8615 149.045 51.7285C148.271 51.5161 147.495 51.3037 146.717 51.0888C146.236 50.9558 145.747 51.2807 145.626 51.8155C145.506 52.3502 145.8 52.8901 146.283 53.0232C147.061 53.2381 147.839 53.453 148.616 53.6654C148.65 53.6731 148.683 53.6808 148.717 53.6859ZM144.058 52.3989C144.504 52.4628 144.931 52.1481 145.044 51.6543C145.167 51.1195 144.873 50.5796 144.391 50.444C143.617 50.2291 142.841 50.0116 142.064 49.7916C141.582 49.6559 141.092 49.9783 140.969 50.5105C140.847 51.0453 141.138 51.5878 141.621 51.7234C142.399 51.9434 143.176 52.1609 143.952 52.3758C143.986 52.3861 144.021 52.3937 144.058 52.3989ZM139.401 51.0863C139.844 51.1502 140.272 50.8381 140.385 50.3442C140.507 49.812 140.219 49.267 139.736 49.1314C138.962 48.9114 138.188 48.6888 137.412 48.4687C136.932 48.3305 136.439 48.6504 136.315 49.1851C136.19 49.7174 136.479 50.2624 136.962 50.4005C137.738 50.6231 138.514 50.8457 139.29 51.0658C139.329 51.0735 139.366 51.0811 139.401 51.0863ZM134.76 49.7557C135.201 49.8197 135.629 49.5101 135.744 49.0188C135.869 48.4866 135.582 47.9416 135.1 47.8034C134.328 47.5808 133.554 47.3557 132.783 47.1305C132.302 46.9923 131.81 47.3096 131.683 47.8418C131.556 48.374 131.845 48.919 132.325 49.0598C133.099 49.2849 133.873 49.5101 134.647 49.7327C134.684 49.7429 134.721 49.7506 134.76 49.7557ZM226.064 62.6131C226.381 62.6566 226.706 62.5159 226.907 62.2089C226.96 62.127 227.011 62.0451 227.06 61.9607C227.503 61.1905 227.866 60.4127 228.141 59.6451C228.323 59.1333 228.097 58.5551 227.635 58.3529C227.173 58.1508 226.651 58.4016 226.468 58.9133C226.237 59.5606 225.925 60.2259 225.544 60.886C225.514 60.9372 225.484 60.9858 225.452 61.0344C225.161 61.4796 225.249 62.104 225.653 62.4264C225.775 62.5313 225.919 62.5927 226.064 62.6131ZM130.119 48.4048C130.56 48.4662 130.986 48.1591 131.103 47.6704C131.23 47.1382 130.944 46.5932 130.463 46.4525C129.69 46.2247 128.916 45.997 128.142 45.7693C127.659 45.626 127.169 45.9433 127.04 46.4755C126.911 47.0077 127.197 47.5527 127.678 47.696C128.451 47.9263 129.228 48.154 130.001 48.3817C130.041 48.3894 130.08 48.3971 130.119 48.4048ZM125.471 47.0282C125.91 47.0896 126.335 46.7851 126.453 46.2989C126.583 45.7667 126.298 45.2192 125.818 45.0759C125.042 44.8456 124.268 44.6128 123.492 44.3799C123.009 44.2366 122.517 44.5514 122.388 45.081C122.258 45.6132 122.542 46.1608 123.021 46.3041C123.797 46.5369 124.573 46.7697 125.349 47C125.391 47.0154 125.432 47.0231 125.471 47.0282ZM120.828 45.6362C121.267 45.6977 121.69 45.3957 121.81 44.9096C121.942 44.3774 121.658 43.8298 121.179 43.6865C120.408 43.4537 119.636 43.2208 118.865 42.9854C118.387 42.8396 117.89 43.1518 117.758 43.684C117.627 44.2162 117.908 44.7637 118.389 44.9096C119.16 45.145 119.934 45.3778 120.706 45.6106C120.745 45.6209 120.787 45.6311 120.828 45.6362ZM116.194 44.229C116.631 44.2904 117.054 43.9884 117.176 43.5049C117.308 42.9752 117.028 42.4251 116.548 42.2792C115.776 42.0438 115.005 41.8059 114.235 41.5705C113.757 41.4246 113.261 41.7342 113.127 42.2639C112.995 42.7935 113.274 43.3437 113.753 43.4921C114.524 43.73 115.296 43.9654 116.067 44.2034C116.111 44.2136 116.153 44.2213 116.194 44.229ZM111.567 42.8063C112.004 42.8677 112.427 42.5684 112.547 42.0848C112.681 41.5551 112.401 41.005 111.921 40.8566C111.149 40.6187 110.378 40.3781 109.608 40.1402C109.13 39.9918 108.634 40.3014 108.5 40.831C108.366 41.3607 108.645 41.9108 109.123 42.0592C109.893 42.2997 110.664 42.5377 111.438 42.7756C111.482 42.7884 111.523 42.7987 111.567 42.8063ZM106.943 41.3684C107.377 41.4298 107.8 41.1304 107.922 40.6494C108.056 40.1197 107.779 39.5696 107.301 39.4186C106.529 39.1781 105.76 38.935 104.991 38.6945C104.513 38.5436 104.016 38.8532 103.88 39.3802C103.743 39.9099 104.02 40.46 104.499 40.611C105.268 40.8515 106.039 41.0946 106.811 41.3351C106.855 41.3504 106.899 41.3607 106.943 41.3684ZM102.323 39.915C102.757 39.9764 103.177 39.6796 103.302 39.1986C103.438 38.6689 103.161 38.1188 102.683 37.9653C101.911 37.7222 101.142 37.4791 100.375 37.2335C99.8994 37.0825 99.3981 37.387 99.2618 37.9167C99.1255 38.4463 99.4004 38.999 99.8786 39.15C100.648 39.393 101.417 39.6387 102.189 39.8818C102.233 39.8997 102.276 39.9099 102.323 39.915ZM227.753 57.6954C227.764 57.6979 227.776 57.6979 227.785 57.7005C228.279 57.7491 228.718 57.3474 228.762 56.7972C228.843 55.8173 228.783 54.8347 228.582 53.8701C228.471 53.3328 227.988 52.9976 227.503 53.123C227.018 53.2458 226.716 53.7806 226.829 54.3179C226.986 55.0752 227.034 55.848 226.972 56.6156C226.928 57.1529 227.277 57.6288 227.753 57.6954ZM97.7049 38.4489C98.1369 38.5103 98.5573 38.216 98.682 37.735C98.8206 37.2054 98.5434 36.6527 98.0652 36.5017C97.2937 36.2561 96.5244 36.0105 95.7598 35.7648C95.2793 35.6113 94.7827 35.9158 94.6441 36.4454C94.5055 36.9751 94.7804 37.5278 95.2585 37.6813C96.0255 37.9269 96.7947 38.1725 97.5663 38.4182C97.6148 38.4335 97.6587 38.4412 97.7049 38.4489ZM93.0894 36.97C93.5214 37.0314 93.9418 36.7371 94.0666 36.2586C94.2052 35.729 93.9303 35.1763 93.4544 35.0228C92.6829 34.7746 91.9136 34.5264 91.149 34.2782C90.6708 34.1247 90.1718 34.4266 90.0332 34.9563C89.8946 35.4859 90.1672 36.0386 90.6454 36.1921C91.4123 36.4403 92.1816 36.6885 92.9531 36.9367C92.997 36.9521 93.0432 36.9648 93.0894 36.97ZM88.4786 35.4782C88.9106 35.5397 89.3287 35.2454 89.4557 34.7695C89.5943 34.2398 89.3217 33.6872 88.8459 33.5336C88.0743 33.2829 87.3074 33.0321 86.5428 32.784C86.0646 32.6279 85.5657 32.9298 85.4247 33.4594C85.2838 33.9891 85.5564 34.5418 86.0346 34.6978C86.7992 34.9486 87.5685 35.1968 88.34 35.4475C88.3862 35.4629 88.4324 35.4731 88.4786 35.4782ZM83.8701 33.9763C84.2998 34.0377 84.7202 33.746 84.8472 33.2701C84.9881 32.743 84.7156 32.1878 84.2397 32.0317C83.4682 31.7784 82.7012 31.5276 81.9366 31.2769C81.4607 31.1208 80.9594 31.4202 80.8185 31.9498C80.6776 32.4769 80.9479 33.0321 81.4261 33.1882C82.1907 33.439 82.9576 33.6923 83.7292 33.9456C83.7754 33.9584 83.8239 33.9686 83.8701 33.9763ZM79.2662 32.4616C79.6959 32.523 80.114 32.2313 80.241 31.7579C80.3819 31.2308 80.1117 30.6756 79.6358 30.5169C78.8642 30.2611 78.0973 30.0078 77.335 29.7545C76.8591 29.5958 76.3579 29.8952 76.2146 30.4248C76.0714 30.9519 76.3417 31.5072 76.8199 31.6658C77.5822 31.9191 78.3491 32.1724 79.123 32.4283C79.1692 32.4436 79.2177 32.4539 79.2662 32.4616ZM226.739 52.6368C226.921 52.6624 227.111 52.6266 227.284 52.5217C227.72 52.2581 227.88 51.6517 227.642 51.1681C227.254 50.3826 226.764 49.5971 226.184 48.832C225.865 48.4099 225.297 48.3561 224.916 48.7092C224.535 49.0623 224.486 49.6918 224.805 50.114C225.309 50.7792 225.731 51.4547 226.062 52.1225C226.205 52.4168 226.461 52.5984 226.739 52.6368ZM74.6623 30.9366C75.092 30.998 75.5101 30.7089 75.6371 30.2355C75.7804 29.7084 75.5101 29.1532 75.0342 28.9945C74.2627 28.7387 73.4957 28.4828 72.7357 28.2269C72.2599 28.0683 71.7586 28.3651 71.6131 28.8922C71.4698 29.4193 71.7401 29.9771 72.216 30.1357C72.9783 30.389 73.7452 30.6449 74.5168 30.9033C74.5653 30.9161 74.6138 30.9289 74.6623 30.9366ZM70.063 29.3988C70.4904 29.4602 70.9085 29.1711 71.0379 28.6977C71.1811 28.1706 70.9131 27.6154 70.4373 27.4542C69.6634 27.1958 68.8988 26.9373 68.1388 26.6815C67.6629 26.5228 67.1616 26.8196 67.0161 27.3467C66.8706 27.8738 67.1409 28.4291 67.6144 28.5903C68.3744 28.8461 69.1413 29.1045 69.9152 29.363C69.966 29.3809 70.0145 29.3911 70.063 29.3988ZM65.4661 27.8508C65.8934 27.9122 66.3092 27.6231 66.4409 27.1523C66.5864 26.6252 66.3185 26.0699 65.8426 25.9087C65.0687 25.6478 64.3041 25.3893 63.5464 25.1309C63.0729 24.9697 62.567 25.2665 62.4214 25.791C62.2759 26.3181 62.5439 26.8759 63.0174 27.0371C63.7751 27.2956 64.5421 27.554 65.3159 27.815C65.3667 27.8329 65.4176 27.8431 65.4661 27.8508ZM60.8714 26.2925C61.2988 26.354 61.7146 26.0674 61.8439 25.5966C61.9895 25.0695 61.7238 24.5117 61.2479 24.3505C60.4741 24.087 59.7072 23.826 58.9518 23.5675C58.4759 23.4064 57.9723 23.7006 57.8268 24.2251C57.6813 24.7522 57.9469 25.31 58.4228 25.4712C59.1782 25.7296 59.9451 25.9906 60.7189 26.2542C60.7721 26.2746 60.8229 26.2849 60.8714 26.2925ZM223.708 48.5634C223.99 48.6043 224.285 48.4943 224.491 48.241C224.824 47.8316 224.794 47.2022 224.424 46.8337C223.842 46.2529 223.19 45.667 222.49 45.0964C222.091 44.7689 221.527 44.8635 221.231 45.3087C220.936 45.7514 221.021 46.3757 221.423 46.7032C222.075 47.2354 222.68 47.7779 223.218 48.3152C223.361 48.4559 223.532 48.5378 223.708 48.5634ZM56.2814 24.7241C56.7064 24.7855 57.1222 24.4989 57.2539 24.0307C57.4017 23.5061 57.1338 22.9458 56.6602 22.7846C55.8841 22.5185 55.1194 22.2549 54.3663 21.9965C53.8928 21.8353 53.3869 22.127 53.2391 22.6515C53.0912 23.1786 53.3569 23.7364 53.8327 23.9002C54.5858 24.1586 55.3527 24.4222 56.1289 24.6883C56.1774 24.7036 56.2283 24.7164 56.2814 24.7241ZM51.6913 23.1454C52.1164 23.2068 52.5322 22.9228 52.6639 22.452C52.8117 21.9274 52.5461 21.3671 52.0725 21.2033C51.294 20.9347 50.5294 20.6711 49.7786 20.4101C49.3028 20.2464 48.7992 20.538 48.6513 21.0626C48.5035 21.5871 48.7669 22.1475 49.2427 22.3112C49.9935 22.5722 50.7581 22.8358 51.5366 23.1044C51.5874 23.1249 51.6382 23.1377 51.6913 23.1454ZM47.1036 21.5564C47.5287 21.6178 47.9422 21.3338 48.0761 20.8656C48.2263 20.341 47.9607 19.7807 47.4871 19.6169C46.704 19.3457 45.9394 19.0796 45.1955 18.8186C44.722 18.6523 44.2161 18.944 44.0659 19.4711C43.9158 19.9956 44.1791 20.556 44.655 20.7223C45.4011 20.9833 46.1657 21.2494 46.9489 21.5206C46.9997 21.5359 47.0505 21.5487 47.1036 21.5564ZM219.857 45.3957C220.194 45.4443 220.541 45.278 220.733 44.9377C220.998 44.472 220.871 43.8554 220.451 43.5637C219.788 43.1031 219.076 42.6375 218.335 42.1846C217.9 41.9185 217.353 42.0925 217.11 42.576C216.87 43.0571 217.027 43.6635 217.464 43.9296C218.175 44.3646 218.857 44.8098 219.492 45.2499C219.608 45.3292 219.732 45.3778 219.857 45.3957ZM42.5182 19.9547C42.941 20.0135 43.3568 19.7321 43.4884 19.2664C43.6386 18.7419 43.3752 18.1815 42.9017 18.0152C42.1116 17.7388 41.3493 17.4702 40.6101 17.2118C40.1366 17.0454 39.6307 17.3346 39.4805 17.8591C39.3304 18.3836 39.5914 18.944 40.065 19.1103C40.8042 19.3713 41.5688 19.64 42.3588 19.9163C42.4119 19.9342 42.4651 19.947 42.5182 19.9547ZM37.9328 18.3427C38.3555 18.4016 38.769 18.1226 38.903 17.657C39.0532 17.1324 38.7921 16.5721 38.3186 16.4032C37.517 16.1192 36.7524 15.8505 36.027 15.5921C35.5535 15.4232 35.0476 15.7124 34.8951 16.2369C34.7427 16.7614 35.0037 17.3218 35.4772 17.4907C36.2026 17.7491 36.9672 18.0177 37.7711 18.3018C37.8265 18.3222 37.8797 18.335 37.9328 18.3427ZM215.655 42.8114C216.025 42.8652 216.401 42.6554 216.577 42.2639C216.796 41.7701 216.614 41.1713 216.17 40.9283C215.468 40.5419 214.726 40.1555 213.964 39.7768C213.511 39.5517 212.978 39.7743 212.774 40.2758C212.571 40.7773 212.772 41.3684 213.225 41.5935C213.966 41.962 214.687 42.3407 215.371 42.7142C215.461 42.7654 215.558 42.7987 215.655 42.8114ZM33.3474 16.7154C33.7701 16.7742 34.1836 16.4953 34.3176 16.0322C34.4701 15.5077 34.209 14.9473 33.7355 14.7784C32.8992 14.4816 32.1346 14.2079 31.4439 13.9597C30.9704 13.7908 30.4645 14.0774 30.3097 14.6019C30.1572 15.1264 30.4159 15.6868 30.8895 15.8582C31.5802 16.1064 32.3472 16.3802 33.1857 16.677C33.2388 16.6949 33.2943 16.7077 33.3474 16.7154ZM28.7574 15.0727C29.1778 15.1315 29.5913 14.8552 29.7276 14.3921C29.8824 13.8676 29.6236 13.3046 29.1501 13.1358C27.734 12.6266 26.9786 12.3502 26.9786 12.3502C26.5074 12.1788 25.9969 12.4628 25.8421 12.9848C25.6873 13.5068 25.9437 14.0722 26.415 14.2437C26.415 14.2437 27.1727 14.52 28.5933 15.0318C28.6465 15.0522 28.7019 15.065 28.7574 15.0727ZM211.271 40.6212C211.663 40.6775 212.058 40.437 212.215 40.0123C212.405 39.5031 212.185 38.9197 211.728 38.7099C211.003 38.3772 210.243 38.0446 209.471 37.7171C209.007 37.5201 208.487 37.7785 208.309 38.2928C208.131 38.8071 208.365 39.3828 208.829 39.5798C209.587 39.8997 210.33 40.2272 211.042 40.5547C211.116 40.588 211.194 40.611 211.271 40.6212ZM206.78 38.715C207.191 38.7738 207.595 38.5103 207.741 38.06C207.907 37.5406 207.665 36.9725 207.196 36.7857C206.452 36.4915 205.683 36.1972 204.904 35.9107C204.431 35.7341 203.922 36.0181 203.765 36.5401C203.608 37.0621 203.862 37.6276 204.334 37.8015C205.101 38.0856 205.861 38.3747 206.591 38.6638C206.653 38.6894 206.718 38.7048 206.78 38.715ZM202.215 37.0263C202.64 37.0851 203.054 36.8036 203.188 36.3354C203.336 35.8109 203.072 35.2505 202.599 35.0868C201.846 34.8258 201.067 34.5622 200.282 34.3064C199.806 34.1503 199.305 34.4522 199.164 34.9793C199.023 35.5064 199.295 36.0616 199.771 36.2177C200.545 36.471 201.314 36.732 202.058 36.9904C202.111 37.0058 202.164 37.0186 202.215 37.0263ZM197.602 35.5141C198.039 35.5755 198.462 35.2761 198.582 34.7925C198.716 34.2629 198.436 33.7128 197.958 33.5644C197.191 33.3264 196.406 33.091 195.622 32.8607C195.142 32.72 194.65 33.0373 194.523 33.5695C194.396 34.1017 194.682 34.6467 195.163 34.7874C195.937 35.0151 196.713 35.248 197.473 35.4834C197.517 35.4987 197.561 35.509 197.602 35.5141ZM192.947 34.1503C193.393 34.2143 193.823 33.8995 193.934 33.4032C194.054 32.8684 193.761 32.3285 193.28 32.1929C192.509 31.978 191.716 31.7656 190.931 31.5583C190.446 31.433 189.963 31.763 189.847 32.2978C189.732 32.8326 190.032 33.3699 190.515 33.4978C191.293 33.7025 192.079 33.9149 192.844 34.1247C192.878 34.1375 192.913 34.1452 192.947 34.1503ZM188.263 32.9196C188.718 32.9835 189.152 32.656 189.254 32.1494C189.362 31.6121 189.057 31.0799 188.572 30.9596C187.785 30.7626 186.988 30.5732 186.207 30.389C185.719 30.2739 185.244 30.6193 185.14 31.1592C185.038 31.6991 185.347 32.2261 185.835 32.3413C186.609 32.523 187.396 32.7123 188.18 32.9068C188.205 32.9119 188.235 32.917 188.263 32.9196ZM183.543 31.8193C184.01 31.8858 184.449 31.5404 184.539 31.0236C184.634 30.4837 184.317 29.9592 183.83 29.8543C182.326 29.5267 181.46 29.363 181.425 29.3553C180.942 29.2606 180.471 29.6265 180.386 30.1715C180.302 30.714 180.63 31.2283 181.12 31.3229C181.129 31.3255 182.003 31.4892 183.481 31.8116C183.504 31.8142 183.523 31.8168 183.543 31.8193Z" fill="white" fill-opacity="0.5"/>
<path d="M42.7666 43.442L0 8.18945L41.7491 16.8509L37.5944 24.2127L45.0503 36.0282L42.7666 43.442Z" fill="#B7EE81"/>
<path d="M42.7666 43.442L0 8.18945L41.7491 16.8509L37.5944 24.2127L45.0503 36.0282L42.7666 43.442Z" fill="black" fill-opacity="0.2"/>
<path d="M0 8.18945L47.1891 24.7395L79.2554 56.5954L0 8.18945Z" fill="#B7EE81"/>
<path d="M0 8.18945L47.1891 24.7395L79.2554 56.5954L0 8.18945Z" fill="white" fill-opacity="0.5"/>
<path d="M41.7494 16.8508L0.000247955 8.18932L45.6553 0.200195L41.7494 16.8508Z" fill="#B7EE81"/>
<path d="M41.7494 16.8508L0.000247955 8.18932L45.6553 0.200195L41.7494 16.8508Z" fill="white" fill-opacity="0.5"/>
</svg>
