<svg width="164" height="184" viewBox="0 0 164 184" fill="none" xmlns="http://www.w3.org/2000/svg">
<g opacity="0.6" clip-path="url(#clip0_433_1155)">
<path fill-rule="evenodd" clip-rule="evenodd" d="M60.3957 144.096L46.346 60.3526C44.4688 60.4581 42.5616 59.7491 41.1957 58.2519C38.7857 55.6103 38.9734 51.5151 41.6151 49.1051C44.2567 46.695 48.3519 46.8828 50.7619 49.5245C52.3829 51.3012 52.8287 53.7355 52.143 55.8724L131.15 91.0801C131.499 90.3646 131.985 89.7018 132.609 89.1328C135.251 86.7228 139.346 86.9106 141.756 89.5522C144.166 92.1939 143.978 96.2891 141.336 98.6991C138.791 101.021 134.896 100.932 132.459 98.5582L67.6563 146.949C69.2515 149.544 68.8327 152.988 66.4993 155.117C63.8576 157.527 59.7624 157.339 57.3524 154.698C54.9424 152.056 55.1301 147.961 57.7718 145.551C58.5475 144.843 59.4487 144.359 60.3957 144.096ZM50.3426 58.6713C50.5319 58.4986 50.7086 58.3172 50.8727 58.1283L90.3516 86.3833C89.0417 88.747 89.3113 91.7787 91.2335 93.8857C91.652 94.3444 92.1214 94.7292 92.6252 95.0392L64.7075 144.39C63.7389 143.972 62.6861 143.799 61.6463 143.877L47.6006 60.1578C48.5907 59.9026 49.5346 59.4085 50.3426 58.6713ZM93.7692 95.5954L65.8175 145.006C66.2002 145.271 66.5599 145.582 66.8888 145.938L131.638 97.5867C130.951 96.5901 130.576 95.4494 130.509 94.2967L102.282 91.1572C101.977 92.3287 101.341 93.4284 100.38 94.305C98.5302 95.993 95.967 96.4066 93.7692 95.5954ZM102.48 89.9019L130.56 93.0249C130.595 92.7722 130.644 92.5212 130.709 92.2734L51.638 57.0372C51.6277 57.0557 51.6173 57.0742 51.6069 57.0926L91.0737 85.3389C91.2515 85.1294 91.4445 84.9289 91.6529 84.7388C94.2945 82.3288 98.3897 82.5165 100.8 85.1582C102.025 86.5012 102.579 88.2199 102.48 89.9019Z" fill="#B7EE81"/>
<path fill-rule="evenodd" clip-rule="evenodd" d="M60.3957 144.096L46.346 60.3526C44.4688 60.4581 42.5616 59.7491 41.1957 58.2519C38.7857 55.6103 38.9734 51.5151 41.6151 49.1051C44.2567 46.695 48.3519 46.8828 50.7619 49.5245C52.3829 51.3012 52.8287 53.7355 52.143 55.8724L131.15 91.0801C131.499 90.3646 131.985 89.7018 132.609 89.1328C135.251 86.7228 139.346 86.9106 141.756 89.5522C144.166 92.1939 143.978 96.2891 141.336 98.6991C138.791 101.021 134.896 100.932 132.459 98.5582L67.6563 146.949C69.2515 149.544 68.8327 152.988 66.4993 155.117C63.8576 157.527 59.7624 157.339 57.3524 154.698C54.9424 152.056 55.1301 147.961 57.7718 145.551C58.5475 144.843 59.4487 144.359 60.3957 144.096ZM50.3426 58.6713C50.5319 58.4986 50.7086 58.3172 50.8727 58.1283L90.3516 86.3833C89.0417 88.747 89.3113 91.7787 91.2335 93.8857C91.652 94.3444 92.1214 94.7292 92.6252 95.0392L64.7075 144.39C63.7389 143.972 62.6861 143.799 61.6463 143.877L47.6006 60.1578C48.5907 59.9026 49.5346 59.4085 50.3426 58.6713ZM93.7692 95.5954L65.8175 145.006C66.2002 145.271 66.5599 145.582 66.8888 145.938L131.638 97.5867C130.951 96.5901 130.576 95.4494 130.509 94.2967L102.282 91.1572C101.977 92.3287 101.341 93.4284 100.38 94.305C98.5302 95.993 95.967 96.4066 93.7692 95.5954ZM102.48 89.9019L130.56 93.0249C130.595 92.7722 130.644 92.5212 130.709 92.2734L51.638 57.0372C51.6277 57.0557 51.6173 57.0742 51.6069 57.0926L91.0737 85.3389C91.2515 85.1294 91.4445 84.9289 91.6529 84.7388C94.2945 82.3288 98.3897 82.5165 100.8 85.1582C102.025 86.5012 102.579 88.2199 102.48 89.9019Z" fill="white" fill-opacity="0.65"/>
</g>
<defs>
<clipPath id="clip0_433_1155">
<rect width="130" height="130" fill="white" transform="translate(-20 87.6172) rotate(-42.3748)"/>
</clipPath>
</defs>
</svg>
