<svg width="68" height="68" viewBox="0 0 68 68" fill="none" xmlns="http://www.w3.org/2000/svg">
<g opacity="0.8">
<path fill-rule="evenodd" clip-rule="evenodd" d="M20.6761 11.5711L52.939 36.4699C53.5654 35.8204 54.4681 35.4479 55.4373 35.5294C57.1475 35.6733 58.4172 37.1762 58.2733 38.8864C58.1295 40.5965 56.6265 41.8662 54.9164 41.7224C53.7662 41.6256 52.8152 40.914 52.3595 39.9381L13.0606 53.315C13.1713 53.6805 13.2162 54.0727 13.1822 54.4764C13.0384 56.1865 11.5354 57.4563 9.82526 57.3124C8.11512 57.1686 6.8454 55.6656 6.98925 53.9555C7.12787 52.3075 8.52852 51.0686 10.1605 51.1093L17.1894 12.935C15.7812 12.5417 14.8053 11.1927 14.9324 9.68211C15.0762 7.97197 16.5792 6.70224 18.2893 6.8461C19.9994 6.98995 21.2692 8.4929 21.1253 10.203C21.0831 10.7053 20.9236 11.1695 20.6761 11.5711ZM52.0804 38.3654C52.0701 38.488 52.067 38.6095 52.0709 38.7295L28.9558 41.6602C28.6459 40.4008 27.5621 39.4214 26.1981 39.3067C25.901 39.2817 25.6103 39.2994 25.3318 39.3546L19.0621 12.874C19.5396 12.7054 19.9665 12.4226 20.3071 12.056L52.5608 36.9477C52.2955 37.3605 52.1244 37.8424 52.0804 38.3654ZM24.7477 39.5319L18.4704 13.0192C18.2492 13.0507 18.0213 13.0587 17.7895 13.0408L10.7663 51.1836C11.3335 51.3101 11.8374 51.5896 12.237 51.9735L23.1984 43.8712C22.9235 43.3594 22.7888 42.7648 22.8411 42.1427C22.9419 40.945 23.7093 39.9632 24.7477 39.5319ZM23.5382 44.3778L12.6341 52.4377C12.7043 52.5381 12.7686 52.6427 12.8266 52.751L52.1573 39.3633C52.1549 39.3534 52.1526 39.3435 52.1502 39.3336L29.0422 42.2635C29.048 42.3952 29.0454 42.5288 29.0341 42.6636C28.8902 44.3738 27.3873 45.6435 25.6771 45.4997C24.8077 45.4265 24.0521 45.0021 23.5382 44.3778Z" fill="#B7EE81"/>
<path fill-rule="evenodd" clip-rule="evenodd" d="M20.6761 11.5711L52.939 36.4699C53.5654 35.8204 54.4681 35.4479 55.4373 35.5294C57.1475 35.6733 58.4172 37.1762 58.2733 38.8864C58.1295 40.5965 56.6265 41.8662 54.9164 41.7224C53.7662 41.6256 52.8152 40.914 52.3595 39.9381L13.0606 53.315C13.1713 53.6805 13.2162 54.0727 13.1822 54.4764C13.0384 56.1865 11.5354 57.4563 9.82526 57.3124C8.11512 57.1686 6.8454 55.6656 6.98925 53.9555C7.12787 52.3075 8.52852 51.0686 10.1605 51.1093L17.1894 12.935C15.7812 12.5417 14.8053 11.1927 14.9324 9.68211C15.0762 7.97197 16.5792 6.70224 18.2893 6.8461C19.9994 6.98995 21.2692 8.4929 21.1253 10.203C21.0831 10.7053 20.9236 11.1695 20.6761 11.5711ZM52.0804 38.3654C52.0701 38.488 52.067 38.6095 52.0709 38.7295L28.9558 41.6602C28.6459 40.4008 27.5621 39.4214 26.1981 39.3067C25.901 39.2817 25.6103 39.2994 25.3318 39.3546L19.0621 12.874C19.5396 12.7054 19.9665 12.4226 20.3071 12.056L52.5608 36.9477C52.2955 37.3605 52.1244 37.8424 52.0804 38.3654ZM24.7477 39.5319L18.4704 13.0192C18.2492 13.0507 18.0213 13.0587 17.7895 13.0408L10.7663 51.1836C11.3335 51.3101 11.8374 51.5896 12.237 51.9735L23.1984 43.8712C22.9235 43.3594 22.7888 42.7648 22.8411 42.1427C22.9419 40.945 23.7093 39.9632 24.7477 39.5319ZM23.5382 44.3778L12.6341 52.4377C12.7043 52.5381 12.7686 52.6427 12.8266 52.751L52.1573 39.3633C52.1549 39.3534 52.1526 39.3435 52.1502 39.3336L29.0422 42.2635C29.048 42.3952 29.0454 42.5288 29.0341 42.6636C28.8902 44.3738 27.3873 45.6435 25.6771 45.4997C24.8077 45.4265 24.0521 45.0021 23.5382 44.3778Z" fill="white" fill-opacity="0.65"/>
</g>
</svg>
