<svg width="52" height="42" viewBox="0 0 52 42" fill="none" xmlns="http://www.w3.org/2000/svg">
<g opacity="0.6">
<path fill-rule="evenodd" clip-rule="evenodd" d="M19.7881 3.74924C19.9274 4.26905 19.9804 4.79164 19.9559 5.30181L34.7631 5.8348C34.8655 4.17492 36.0101 2.692 37.705 2.23785C39.8271 1.66923 42.0084 2.92866 42.5771 5.05085C43.0993 6.99984 42.0797 8.99873 40.266 9.75247L45.4267 29.2608C47.9879 28.7984 50.5184 30.3705 51.2042 32.9297C51.927 35.6274 50.3262 38.4002 47.6285 39.123C45.8156 39.6088 43.9688 39.0451 42.733 37.8044L32.0219 45.2252C32.2003 45.5595 32.3437 45.9194 32.446 46.3011C33.1688 48.9988 31.568 51.7716 28.8703 52.4945C26.1726 53.2173 23.3999 51.6164 22.677 48.9187C22.5713 48.524 22.5153 48.1278 22.5051 47.7365L8.45687 47.228C8.43479 49.4412 6.95026 51.4585 4.70789 52.0593C2.01023 52.7821 -0.762553 51.1812 -1.4854 48.4835C-2.20825 45.7858 -0.607403 43.013 2.09026 42.2902L-3.33343 22.0487C-3.35354 22.0544 -3.37372 22.06 -3.39398 22.0654C-5.642 22.6678 -7.95268 21.3337 -8.55505 19.0856C-9.15741 16.8376 -7.82334 14.5269 -5.57532 13.9245C-3.69385 13.4204 -1.76848 14.2727 -0.837481 15.882L10.8214 8.0448C10.4622 7.554 10.186 6.98965 10.0192 6.36683C9.2963 3.66912 10.8972 0.89631 13.5948 0.173474C16.2925 -0.549362 19.0652 1.05154 19.7881 3.74924ZM19.879 5.96866L34.7704 6.4188C34.7902 6.64848 34.8304 6.87959 34.8922 7.11001C35.0279 7.61671 35.2556 8.07422 35.5525 8.46942L22.7003 17.0154C21.8399 16.0301 20.4643 15.5616 19.1155 15.923C17.6767 16.3086 16.6836 17.5272 16.5161 18.9208L-0.286828 18.3766C-0.243031 17.8953 -0.281891 17.3983 -0.414257 16.9043C-0.451628 16.7648 -0.495573 16.6289 -0.545671 16.4967L11.2684 8.57458C12.5041 9.84966 14.3757 10.4348 16.2124 9.9426C18.1609 9.4205 19.5372 7.82894 19.879 5.96866ZM16.5014 19.6096L-0.408233 19.0658C-0.719624 20.2468 -1.53782 21.2646 -2.68096 21.8043L2.77234 42.1562C5.24053 41.8448 7.62159 43.3955 8.28355 45.866C8.34306 46.0881 8.38682 46.3107 8.41552 46.5326L22.5351 47.0437C22.7528 45.1158 24.0761 43.4164 26.0146 42.7953L20.6912 22.8199C18.8867 23.1642 17.0956 22.0611 16.6125 20.2583C16.5545 20.042 16.5179 19.825 16.5014 19.6096ZM21.3199 22.6394L26.6447 42.6366C28.5473 42.2837 30.4362 43.0553 31.5676 44.522L42.2516 37.2443C41.8855 36.7491 41.6043 36.1782 41.4352 35.5472C40.7357 32.9364 42.2125 30.2553 44.7536 29.4301L39.6038 9.96251C38.2806 10.2597 36.9508 9.857 36.0185 8.98763L23.0915 17.5608C23.2456 17.8259 23.3676 18.1155 23.4508 18.426C23.9225 20.1866 22.9802 21.9931 21.3199 22.6394Z" fill="#B7EE81"/>
<path fill-rule="evenodd" clip-rule="evenodd" d="M19.7881 3.74924C19.9274 4.26905 19.9804 4.79164 19.9559 5.30181L34.7631 5.8348C34.8655 4.17492 36.0101 2.692 37.705 2.23785C39.8271 1.66923 42.0084 2.92866 42.5771 5.05085C43.0993 6.99984 42.0797 8.99873 40.266 9.75247L45.4267 29.2608C47.9879 28.7984 50.5184 30.3705 51.2042 32.9297C51.927 35.6274 50.3262 38.4002 47.6285 39.123C45.8156 39.6088 43.9688 39.0451 42.733 37.8044L32.0219 45.2252C32.2003 45.5595 32.3437 45.9194 32.446 46.3011C33.1688 48.9988 31.568 51.7716 28.8703 52.4945C26.1726 53.2173 23.3999 51.6164 22.677 48.9187C22.5713 48.524 22.5153 48.1278 22.5051 47.7365L8.45687 47.228C8.43479 49.4412 6.95026 51.4585 4.70789 52.0593C2.01023 52.7821 -0.762553 51.1812 -1.4854 48.4835C-2.20825 45.7858 -0.607403 43.013 2.09026 42.2902L-3.33343 22.0487C-3.35354 22.0544 -3.37372 22.06 -3.39398 22.0654C-5.642 22.6678 -7.95268 21.3337 -8.55505 19.0856C-9.15741 16.8376 -7.82334 14.5269 -5.57532 13.9245C-3.69385 13.4204 -1.76848 14.2727 -0.837481 15.882L10.8214 8.0448C10.4622 7.554 10.186 6.98965 10.0192 6.36683C9.2963 3.66912 10.8972 0.89631 13.5948 0.173474C16.2925 -0.549362 19.0652 1.05154 19.7881 3.74924ZM19.879 5.96866L34.7704 6.4188C34.7902 6.64848 34.8304 6.87959 34.8922 7.11001C35.0279 7.61671 35.2556 8.07422 35.5525 8.46942L22.7003 17.0154C21.8399 16.0301 20.4643 15.5616 19.1155 15.923C17.6767 16.3086 16.6836 17.5272 16.5161 18.9208L-0.286828 18.3766C-0.243031 17.8953 -0.281891 17.3983 -0.414257 16.9043C-0.451628 16.7648 -0.495573 16.6289 -0.545671 16.4967L11.2684 8.57458C12.5041 9.84966 14.3757 10.4348 16.2124 9.9426C18.1609 9.4205 19.5372 7.82894 19.879 5.96866ZM16.5014 19.6096L-0.408233 19.0658C-0.719624 20.2468 -1.53782 21.2646 -2.68096 21.8043L2.77234 42.1562C5.24053 41.8448 7.62159 43.3955 8.28355 45.866C8.34306 46.0881 8.38682 46.3107 8.41552 46.5326L22.5351 47.0437C22.7528 45.1158 24.0761 43.4164 26.0146 42.7953L20.6912 22.8199C18.8867 23.1642 17.0956 22.0611 16.6125 20.2583C16.5545 20.042 16.5179 19.825 16.5014 19.6096ZM21.3199 22.6394L26.6447 42.6366C28.5473 42.2837 30.4362 43.0553 31.5676 44.522L42.2516 37.2443C41.8855 36.7491 41.6043 36.1782 41.4352 35.5472C40.7357 32.9364 42.2125 30.2553 44.7536 29.4301L39.6038 9.96251C38.2806 10.2597 36.9508 9.857 36.0185 8.98763L23.0915 17.5608C23.2456 17.8259 23.3676 18.1155 23.4508 18.426C23.9225 20.1866 22.9802 21.9931 21.3199 22.6394Z" fill="white" fill-opacity="0.5"/>
</g>
</svg>
